<svg width="60" height="60" viewBox="0 0 60 60" fill="none" xmlns="http://www.w3.org/2000/svg">
<g clip-path="url(#clip0_474_441)">
<path d="M59.5 30C59.5 13.7076 46.2924 0.5 30 0.5C13.7076 0.5 0.5 13.7076 0.5 30C0.5 46.2924 13.7076 59.5 30 59.5C46.2924 59.5 59.5 46.2924 59.5 30Z" fill="url(#paint0_linear_474_441)" stroke="url(#paint1_linear_474_441)"/>
<path d="M32.5541 34.1168L25.7143 41.9255C25.5428 42.1213 25.5051 42.4005 25.6184 42.6346L29.5207 50.7102C29.7557 51.1967 30.4474 51.1989 30.6861 50.7144L35.9911 39.9331C36.0776 39.7573 36.0798 39.5521 35.9973 39.3743L33.6298 34.2709C33.4324 33.8457 32.8628 33.7642 32.5541 34.1168Z" fill="#7B15F8"/>
<path d="M32.5541 34.1168L25.7143 41.9255C25.5428 42.1213 25.5051 42.4005 25.6184 42.6346L29.5207 50.7102C29.7557 51.1967 30.4474 51.1989 30.6861 50.7144L35.9911 39.9331C36.0776 39.7573 36.0798 39.5521 35.9973 39.3743L33.6298 34.2709C33.4324 33.8457 32.8628 33.7642 32.5541 34.1168Z" fill="url(#paint2_linear_474_441)"/>
<path d="M33.859 34.793L30.6177 50.8695L35.9361 40.045C36.0573 39.7985 36.0602 39.51 35.944 39.2609L33.859 34.793Z" fill="url(#paint3_linear_474_441)"/>
<path d="M25.9115 36.5476L15.9948 33.4792C15.7463 33.4023 15.4759 33.4815 15.3079 33.6802L9.52035 40.5317C9.1717 40.9445 9.45128 41.5774 9.99078 41.598L21.9977 42.0547C22.1935 42.0622 22.3824 41.9807 22.5111 41.833L26.2087 37.5929C26.5168 37.2397 26.3596 36.6861 25.9118 36.5476H25.9115Z" fill="#7B15F8"/>
<path d="M25.9115 36.5476L15.9948 33.4792C15.7463 33.4023 15.4759 33.4815 15.3079 33.6802L9.52035 40.5317C9.1717 40.9445 9.45128 41.5774 9.99078 41.598L21.9977 42.0547C22.1935 42.0622 22.3824 41.9807 22.5111 41.833L26.2087 37.5929C26.5168 37.2397 26.3596 36.6861 25.9118 36.5476H25.9115Z" fill="url(#paint4_linear_474_441)"/>
<path d="M25.8246 38.0151L9.8208 41.5992L21.8729 42.0506C22.1476 42.0611 22.4121 41.9462 22.5922 41.7386L25.8246 38.0155V38.0151Z" fill="url(#paint5_linear_474_441)"/>
<path d="M21.3489 31.6244L20.1088 21.3178C20.0777 21.0595 19.8954 20.8447 19.6453 20.7727L11.0295 18.2804C10.5106 18.1305 10.0464 18.6435 10.2478 19.1447L14.7249 30.2952C14.7979 30.4772 14.9491 30.6161 15.1364 30.6737L20.5151 32.322C20.9632 32.4591 21.4045 32.0902 21.3486 31.6247L21.3489 31.6244Z" fill="#7B15F8"/>
<path d="M21.3489 31.6244L20.1088 21.3178C20.0777 21.0595 19.8954 20.8447 19.6453 20.7727L11.0295 18.2804C10.5106 18.1305 10.0464 18.6435 10.2478 19.1447L14.7249 30.2952C14.7979 30.4772 14.9491 30.6161 15.1364 30.6737L20.5151 32.322C20.9632 32.4591 21.4045 32.0902 21.3486 31.6247L21.3489 31.6244Z" fill="url(#paint6_linear_474_441)"/>
<path d="M19.9741 32.1433L10.1782 18.9902L14.6786 30.1798C14.7811 30.4348 14.9938 30.6296 15.2567 30.7094L19.9741 32.1433Z" fill="url(#paint7_linear_474_441)"/>
<path d="M24.913 23.9587L33.4554 18.0605C33.6695 17.9125 33.7746 17.6513 33.7222 17.3962L31.9141 8.61125C31.8051 8.08222 31.135 7.91067 30.7854 8.32218L23.0038 17.4777C22.8771 17.627 22.8244 17.8257 22.861 18.0182L23.908 23.5456C23.9954 24.0062 24.5273 24.2249 24.913 23.9584V23.9587Z" fill="#7B15F8"/>
<path d="M24.9294 23.9423L33.4718 18.044C33.6859 17.8961 33.791 17.6348 33.7386 17.3798L31.9302 8.59513C31.8212 8.0661 31.1511 7.89456 30.8015 8.30607L23.0199 17.4616C22.8932 17.6109 22.8405 17.8096 22.8771 18.0021L23.9241 23.5294C24.0115 23.9901 24.5435 24.2087 24.9291 23.9423H24.9294Z" fill="url(#paint8_linear_474_441)"/>
<path d="M23.8131 22.9832L30.8889 8.18799L23.0838 17.3825C22.906 17.592 22.8327 17.8709 22.8844 18.1407L23.8128 22.9832H23.8131Z" fill="url(#paint9_linear_474_441)"/>
<path d="M32.7486 22.8284L42.5144 26.3483C42.7593 26.4367 43.033 26.3699 43.2097 26.179L49.3054 19.5999C49.6724 19.2038 49.4222 18.5585 48.884 18.5133L36.9105 17.5067C36.7154 17.4903 36.5232 17.563 36.3877 17.7047L32.4998 21.7707C32.1757 22.1095 32.3076 22.6696 32.7486 22.8284Z" fill="#7B15F8"/>
<path d="M32.7486 22.8284L42.5144 26.3483C42.7593 26.4367 43.033 26.3699 43.2097 26.179L49.3054 19.5999C49.6724 19.2038 49.4222 18.5585 48.884 18.5133L36.9105 17.5067C36.7154 17.4903 36.5232 17.563 36.3877 17.7047L32.4998 21.7707C32.1757 22.1095 32.3076 22.6696 32.7486 22.8284Z" fill="url(#paint10_linear_474_441)"/>
<path d="M32.9023 21.3667L49.0535 18.5202L37.0347 17.5168C36.7611 17.4939 36.4913 17.5964 36.3021 17.7954L32.9027 21.3667H32.9023Z" fill="url(#paint11_linear_474_441)"/>
<path d="M35.1543 30.1722L39.8219 39.4443C39.9388 39.6768 40.1833 39.8166 40.4429 39.7999L49.3929 39.2168C49.9318 39.1818 50.194 38.5415 49.8345 38.1385L41.8356 29.1721C41.7053 29.0261 41.5157 28.9466 41.32 28.9564L35.701 29.2337C35.2328 29.2566 34.9431 29.7539 35.1539 30.1726L35.1543 30.1722Z" fill="#7B15F8"/>
<path d="M35.1543 30.1722L39.8219 39.4443C39.9388 39.6768 40.1833 39.8166 40.4429 39.7999L49.3929 39.2168C49.9318 39.1818 50.194 38.5415 49.8345 38.1385L41.8356 29.1721C41.7053 29.0261 41.5157 28.9466 41.32 28.9564L35.701 29.2337C35.2328 29.2566 34.9431 29.7539 35.1539 30.1726L35.1543 30.1722Z" fill="url(#paint12_linear_474_441)"/>
<path d="M36.2715 29.2176L49.9533 38.2603L41.9193 29.2654C41.7363 29.0605 41.4701 28.9495 41.1958 28.9636L36.2718 29.2176H36.2715Z" fill="url(#paint13_linear_474_441)"/>
<path d="M30.2688 30.7074C29.4959 31.5059 28.6542 32.0781 27.9252 32.3626C27.1788 32.6539 26.6268 32.6186 26.3427 32.3436C26.0585 32.0686 26.0051 31.518 26.2723 30.7624C26.5329 30.0245 27.0776 29.1648 27.8505 28.3664C28.6234 27.5679 29.4651 26.9957 30.1942 26.7112C30.9406 26.4198 31.4925 26.4552 31.7767 26.7302C32.0608 27.0052 32.1139 27.5558 31.8471 28.3114C31.5865 29.0489 31.0417 29.9089 30.2688 30.7074Z" stroke="white" stroke-width="0.472034"/>
<path d="M30.2688 30.7074C29.4959 31.5059 28.6542 32.0781 27.9252 32.3626C27.1788 32.6539 26.6268 32.6186 26.3427 32.3436C26.0585 32.0686 26.0051 31.518 26.2723 30.7624C26.5329 30.0245 27.0776 29.1648 27.8505 28.3664C28.6234 27.5679 29.4651 26.9957 30.1942 26.7112C30.9406 26.4198 31.4925 26.4552 31.7767 26.7302C32.0608 27.0052 32.1139 27.5558 31.8471 28.3114C31.5865 29.0489 31.0417 29.9089 30.2688 30.7074Z" stroke="white" stroke-width="0.472034"/>
<path d="M30.2688 30.7074C29.4959 31.5059 28.6542 32.0781 27.9252 32.3626C27.1788 32.6539 26.6268 32.6186 26.3427 32.3436C26.0585 32.0686 26.0051 31.518 26.2723 30.7624C26.5329 30.0245 27.0776 29.1648 27.8505 28.3664C28.6234 27.5679 29.4651 26.9957 30.1942 26.7112C30.9406 26.4198 31.4925 26.4552 31.7767 26.7302C32.0608 27.0052 32.1139 27.5558 31.8471 28.3114C31.5865 29.0489 31.0417 29.9089 30.2688 30.7074Z" stroke="white" stroke-width="0.472034"/>
<path d="M27.9112 30.7656C27.1003 30.0054 26.5147 29.1732 26.2184 28.4491C25.9152 27.7073 25.9414 27.155 26.2122 26.8663C26.4826 26.5778 27.0322 26.5156 27.792 26.7703C28.5339 27.0191 29.4024 27.5498 30.2133 28.31C31.0242 29.0701 31.6098 29.9023 31.9061 30.6268C32.2093 31.3686 32.1831 31.9209 31.9123 32.2093C31.6419 32.4977 31.0923 32.5599 30.3324 32.3052C29.5906 32.0564 28.7221 31.5257 27.9112 30.7656Z" stroke="white" stroke-width="0.472034"/>
<path d="M27.9112 30.7656C27.1003 30.0054 26.5147 29.1732 26.2184 28.4491C25.9152 27.7073 25.9414 27.155 26.2122 26.8663C26.4826 26.5778 27.0322 26.5156 27.792 26.7703C28.5339 27.0191 29.4024 27.5498 30.2133 28.31C31.0242 29.0701 31.6098 29.9023 31.9061 30.6268C32.2093 31.3686 32.1831 31.9209 31.9123 32.2093C31.6419 32.4977 31.0923 32.5599 30.3324 32.3052C29.5906 32.0564 28.7221 31.5257 27.9112 30.7656Z" stroke="white" stroke-width="0.472034"/>
<path d="M27.9112 30.7656C27.1003 30.0054 26.5147 29.1732 26.2184 28.4491C25.9152 27.7073 25.9414 27.155 26.2122 26.8663C26.4826 26.5778 27.0322 26.5156 27.792 26.7703C28.5339 27.0191 29.4024 27.5498 30.2133 28.31C31.0242 29.0701 31.6098 29.9023 31.9061 30.6268C32.2093 31.3686 32.1831 31.9209 31.9123 32.2093C31.6419 32.4977 31.0923 32.5599 30.3324 32.3052C29.5906 32.0564 28.7221 31.5257 27.9112 30.7656Z" stroke="white" stroke-width="0.472034"/>
<path d="M27.9112 30.7656C27.1003 30.0054 26.5147 29.1732 26.2184 28.4491C25.9152 27.7073 25.9414 27.155 26.2122 26.8663C26.4826 26.5778 27.0322 26.5156 27.792 26.7703C28.5339 27.0191 29.4024 27.5498 30.2133 28.31C31.0242 29.0701 31.6098 29.9023 31.9061 30.6268C32.2093 31.3686 32.1831 31.9209 31.9123 32.2093C31.6419 32.4977 31.0923 32.5599 30.3324 32.3052C29.5906 32.0564 28.7221 31.5257 27.9112 30.7656Z" stroke="white" stroke-width="0.472034"/>
<path d="M27.9112 30.7656C27.1003 30.0054 26.5147 29.1732 26.2184 28.4491C25.9152 27.7073 25.9414 27.155 26.2122 26.8663C26.4826 26.5778 27.0322 26.5156 27.792 26.7703C28.5339 27.0191 29.4024 27.5498 30.2133 28.31C31.0242 29.0701 31.6098 29.9023 31.9061 30.6268C32.2093 31.3686 32.1831 31.9209 31.9123 32.2093C31.6419 32.4977 31.0923 32.5599 30.3324 32.3052C29.5906 32.0564 28.7221 31.5257 27.9112 30.7656Z" stroke="white" stroke-width="0.472034"/>
<path d="M27.9112 30.7656C27.1003 30.0054 26.5147 29.1732 26.2184 28.4491C25.9152 27.7073 25.9414 27.155 26.2122 26.8663C26.4826 26.5778 27.0322 26.5156 27.792 26.7703C28.5339 27.0191 29.4024 27.5498 30.2133 28.31C31.0242 29.0701 31.6098 29.9023 31.9061 30.6268C32.2093 31.3686 32.1831 31.9209 31.9123 32.2093C31.6419 32.4977 31.0923 32.5599 30.3324 32.3052C29.5906 32.0564 28.7221 31.5257 27.9112 30.7656Z" stroke="white" stroke-width="0.472034"/>
<path d="M29.0717 30.3681C29.5123 30.3681 29.8695 30.0109 29.8695 29.5703C29.8695 29.1296 29.5123 28.7725 29.0717 28.7725C28.6311 28.7725 28.2739 29.1296 28.2739 29.5703C28.2739 30.0109 28.6311 30.3681 29.0717 30.3681Z" fill="white"/>
</g>
<defs>
<linearGradient id="paint0_linear_474_441" x1="-4.2" y1="-6.3" x2="64.2" y2="63.3" gradientUnits="userSpaceOnUse">
<stop stop-color="#171720"/>
<stop offset="1" stop-color="#242341"/>
</linearGradient>
<linearGradient id="paint1_linear_474_441" x1="30" y1="-1.7995e-08" x2="30" y2="60" gradientUnits="userSpaceOnUse">
<stop stop-color="#7064E9" stop-opacity="0.4"/>
<stop offset="1" stop-color="#7064E9" stop-opacity="0"/>
</linearGradient>
<linearGradient id="paint2_linear_474_441" x1="33.0402" y1="42.6081" x2="29.1507" y2="42.284" gradientUnits="userSpaceOnUse">
<stop stop-opacity="0.45"/>
<stop offset="1" stop-opacity="0"/>
</linearGradient>
<linearGradient id="paint3_linear_474_441" x1="33.3234" y1="34.793" x2="33.3234" y2="50.8698" gradientUnits="userSpaceOnUse">
<stop stop-color="#7B15F8"/>
<stop offset="1" stop-color="#46326F"/>
</linearGradient>
<linearGradient id="paint4_linear_474_441" x1="18.3535" y1="40.4483" x2="17.0662" y2="36.7637" gradientUnits="userSpaceOnUse">
<stop stop-opacity="0.45"/>
<stop offset="1" stop-opacity="0"/>
</linearGradient>
<linearGradient id="paint5_linear_474_441" x1="25.6069" y1="37.526" x2="10.9224" y2="44.0705" gradientUnits="userSpaceOnUse">
<stop stop-color="#7B15F8"/>
<stop offset="1" stop-color="#46326F"/>
</linearGradient>
<linearGradient id="paint6_linear_474_441" x1="14.7062" y1="26.3124" x2="17.5462" y2="23.6352" gradientUnits="userSpaceOnUse">
<stop stop-opacity="0.45"/>
<stop offset="1" stop-opacity="0"/>
</linearGradient>
<linearGradient id="paint7_linear_474_441" x1="20.3319" y1="31.7449" x2="8.37048" y2="21.0036" gradientUnits="userSpaceOnUse">
<stop stop-color="#7B15F8"/>
<stop offset="1" stop-color="#46326F"/>
</linearGradient>
<linearGradient id="paint8_linear_474_441" x1="26.2294" y1="15.4846" x2="29.9212" y2="16.7506" gradientUnits="userSpaceOnUse">
<stop stop-opacity="0.45"/>
<stop offset="1" stop-opacity="0"/>
</linearGradient>
<linearGradient id="paint9_linear_474_441" x1="22.8684" y1="15.5856" x2="30.8889" y2="15.5856" gradientUnits="userSpaceOnUse">
<stop stop-color="#7B15F8"/>
<stop offset="1" stop-color="#46326F"/>
</linearGradient>
<linearGradient id="paint10_linear_474_441" x1="40.4782" y1="19.2784" x2="41.5951" y2="23.0183" gradientUnits="userSpaceOnUse">
<stop stop-opacity="0.45"/>
<stop offset="1" stop-opacity="0"/>
</linearGradient>
<linearGradient id="paint11_linear_474_441" x1="33.0978" y1="21.8653" x2="48.0668" y2="16.0008" gradientUnits="userSpaceOnUse">
<stop stop-color="#7B15F8"/>
<stop offset="1" stop-color="#46326F"/>
</linearGradient>
<linearGradient id="paint12_linear_474_441" x1="43.2069" y1="32.9117" x2="41.4454" y2="36.3946" gradientUnits="userSpaceOnUse">
<stop stop-opacity="0.45"/>
<stop offset="1" stop-opacity="0"/>
</linearGradient>
<linearGradient id="paint13_linear_474_441" x1="36.0705" y1="29.7139" x2="50.9698" y2="35.7526" gradientUnits="userSpaceOnUse">
<stop stop-color="#7B15F8"/>
<stop offset="1" stop-color="#46326F"/>
</linearGradient>
<clipPath id="clip0_474_441">
<rect width="60" height="60" fill="white"/>
</clipPath>
</defs>
</svg>
