<svg width="31" height="31" viewBox="0 0 31 31" fill="none" xmlns="http://www.w3.org/2000/svg">
<g clip-path="url(#clip0_474_588)">
<g clip-path="url(#clip1_474_588)">
<path d="M25.938 23.891H17.3666C17.1772 23.891 16.9955 23.8157 16.8616 23.6818C16.7276 23.5478 16.6523 23.3661 16.6523 23.1767C16.6523 22.9873 16.7276 22.8056 16.8616 22.6716C16.9955 22.5377 17.1772 22.4624 17.3666 22.4624H25.938C26.1275 22.4624 26.3091 22.5377 26.4431 22.6716C26.5771 22.8056 26.6523 22.9873 26.6523 23.1767C26.6523 23.3661 26.5771 23.5478 26.4431 23.6818C26.3091 23.8157 26.1275 23.891 25.938 23.891Z" fill="#7B15F8"/>
<path d="M26.6525 23.891C25.5162 23.8899 24.4268 23.438 23.6233 22.6345C22.8198 21.8311 22.3679 20.7417 22.3668 19.6054V11.7485C22.3668 11.1802 22.141 10.6351 21.7392 10.2332C21.3373 9.83138 20.7923 9.60562 20.224 9.60562H14.5097C14.3203 9.60562 14.1386 9.53037 14.0046 9.39642C13.8707 9.26247 13.7954 9.08079 13.7954 8.89135V1.0344C13.7954 0.844965 13.8707 0.663288 14.0046 0.529337C14.1386 0.395386 14.3203 0.320133 14.5097 0.320133C15.1664 0.316689 15.7991 0.566648 16.2761 1.01797C16.3858 1.13612 16.5187 1.23036 16.6665 1.2948C16.8143 1.35925 16.9738 1.39251 17.135 1.39251C17.2963 1.39251 17.4558 1.35925 17.6036 1.2948C17.7513 1.23036 17.8843 1.13612 17.994 1.01797C18.4706 0.571244 19.0993 0.32264 19.7525 0.32264C20.4058 0.32264 21.0345 0.571244 21.5111 1.01797C21.6207 1.13564 21.7534 1.22948 21.9009 1.29365C22.0483 1.35781 22.2074 1.39093 22.3682 1.39093C22.5291 1.39093 22.6882 1.35781 22.8356 1.29365C22.9831 1.22948 23.1158 1.13564 23.2254 1.01797C23.702 0.570831 24.3311 0.32197 24.9847 0.32197C25.6382 0.32197 26.2673 0.570831 26.7439 1.01797C26.8535 1.13564 26.9862 1.22948 27.1337 1.29365C27.2812 1.35781 27.4403 1.39093 27.6011 1.39093C27.7619 1.39093 27.921 1.35781 28.0685 1.29365C28.2159 1.22948 28.3486 1.13564 28.4582 1.01797C28.9343 0.565609 29.5672 0.315463 30.2239 0.320133C30.4134 0.320133 30.595 0.395386 30.729 0.529337C30.8629 0.663288 30.9382 0.844965 30.9382 1.0344V19.6054C30.9371 20.7417 30.4852 21.8311 29.6817 22.6345C28.8782 23.438 27.7888 23.8899 26.6525 23.891ZM15.224 8.17709H20.224C21.1708 8.17822 22.0786 8.55485 22.7481 9.22436C23.4176 9.89387 23.7942 10.8016 23.7954 11.7485V19.6054C23.7954 20.3632 24.0964 21.0899 24.6322 21.6257C25.168 22.1615 25.8947 22.4625 26.6525 22.4625C27.4103 22.4625 28.137 22.1615 28.6728 21.6257C29.2086 21.0899 29.5096 20.3632 29.5096 19.6054V2.00938C29.4654 2.04366 29.4196 2.08081 29.3668 2.12223C28.889 2.57059 28.2584 2.82014 27.6032 2.82014C26.948 2.82014 26.3174 2.57059 25.8396 2.12223C25.7307 2.00443 25.5986 1.91043 25.4516 1.84614C25.3045 1.78185 25.1458 1.74867 24.9854 1.74867C24.8249 1.74867 24.6662 1.78185 24.5192 1.84614C24.3722 1.91043 24.24 2.00443 24.1311 2.12223C23.6533 2.57059 23.0227 2.82014 22.3675 2.82014C21.7123 2.82014 21.0817 2.57059 20.604 2.12223C20.495 2.00443 20.3629 1.91043 20.2159 1.84614C20.0689 1.78185 19.9101 1.74867 19.7497 1.74867C19.5892 1.74867 19.4305 1.78185 19.2835 1.84614C19.1365 1.91043 19.0043 2.00443 18.8954 2.12223C18.4175 2.56986 17.7873 2.81894 17.1325 2.81894C16.4778 2.81894 15.8475 2.56986 15.3697 2.12223C15.3161 2.07866 15.2675 2.03866 15.2211 2.00295L15.224 8.17709Z" fill="#7B15F8"/>
<path d="M17.3665 30.3194C17.0281 30.3182 16.6937 30.2467 16.3844 30.1093C16.0751 29.972 15.7978 29.7718 15.5701 29.5215C15.2579 29.2358 15.1044 29.1051 14.7444 29.1051C14.3844 29.1051 14.2308 29.233 13.9187 29.5222C13.6917 29.7733 13.4146 29.9739 13.1053 30.1113C12.796 30.2486 12.4614 30.3196 12.1229 30.3196C11.7845 30.3196 11.4499 30.2486 11.1406 30.1113C10.8313 29.9739 10.5542 29.7733 10.3272 29.5222C10.0158 29.2365 9.86296 29.1058 9.50438 29.1058C9.14581 29.1058 8.99224 29.2337 8.68153 29.5222C8.45489 29.7734 8.17805 29.9742 7.86891 30.1117C7.55977 30.2491 7.22522 30.3201 6.88689 30.3201C6.54857 30.3201 6.21402 30.2491 5.90488 30.1117C5.59574 29.9742 5.31889 29.7734 5.09226 29.5222C4.78155 29.2365 4.62869 29.1058 4.27012 29.1058C3.91155 29.1058 3.75798 29.2337 3.44726 29.5222C3.21976 29.7724 2.94268 29.9724 2.63365 30.1097C2.32462 30.2469 1.9904 30.3183 1.65227 30.3194C1.46283 30.3194 1.28115 30.2441 1.1472 30.1102C1.01324 29.9762 0.937988 29.7945 0.937988 29.6051V13.1769C0.939501 11.8513 1.46677 10.5805 2.40412 9.6431C3.34147 8.70577 4.61236 8.17852 5.93797 8.177H20.2236C20.4131 8.177 20.5948 8.25226 20.7287 8.38621C20.8627 8.52016 20.9379 8.70184 20.9379 8.89127C20.9379 9.08071 20.8627 9.26238 20.7287 9.39634C20.5948 9.53029 20.4131 9.60554 20.2236 9.60554C19.6553 9.60554 19.1103 9.8313 18.7084 10.2332C18.3065 10.635 18.0808 11.1801 18.0808 11.7484V29.6051C18.0808 29.7945 18.0055 29.9762 17.8716 30.1102C17.7376 30.2441 17.5559 30.3194 17.3665 30.3194ZM9.50438 27.6766C9.84248 27.6776 10.1766 27.7491 10.4856 27.8865C10.7945 28.0238 11.0714 28.2241 11.2987 28.4744C11.6101 28.7601 11.7629 28.8908 12.1222 28.8908C12.4815 28.8908 12.6351 28.763 12.9472 28.4744C13.1743 28.2232 13.4515 28.0224 13.761 27.885C14.0705 27.7476 14.4054 27.6766 14.744 27.6766C15.0826 27.6766 15.4175 27.7476 15.727 27.885C16.0365 28.0224 16.3137 28.2232 16.5408 28.4744L16.6522 28.5758V11.7484C16.6508 10.9754 16.9016 10.2231 17.3665 9.60554H5.93797C4.99112 9.60667 4.08337 9.9833 3.41385 10.6528C2.74433 11.3224 2.36769 12.2301 2.36655 13.1769V28.5744C2.40084 28.543 2.43798 28.5101 2.47513 28.4744C2.70176 28.2232 2.97861 28.0224 3.28775 27.885C3.59689 27.7475 3.93144 27.6765 4.26976 27.6765C4.60808 27.6765 4.94264 27.7475 5.25178 27.885C5.56092 28.0224 5.83776 28.2232 6.0644 28.4744C6.37511 28.7601 6.52797 28.8908 6.88725 28.8908C7.24654 28.8908 7.39868 28.763 7.70939 28.4744C7.93672 28.224 8.21375 28.0237 8.52281 27.8863C8.83187 27.749 9.16617 27.6775 9.50438 27.6766Z" fill="#7B15F8"/>
<path d="M9.5092 19.6054C8.99709 19.6054 8.49648 19.4535 8.07067 19.169C7.64487 18.8845 7.313 18.4801 7.11702 18.007C6.92104 17.5339 6.86977 17.0133 6.96968 16.511C7.06958 16.0088 7.31619 15.5474 7.6783 15.1853C8.04042 14.8232 8.50179 14.5766 9.00406 14.4767C9.50633 14.3768 10.0269 14.4281 10.5001 14.624C10.9732 14.82 11.3776 15.1519 11.6621 15.5777C11.9466 16.0035 12.0985 16.5041 12.0985 17.0162C12.0985 17.2056 12.0232 17.3873 11.8893 17.5212C11.7553 17.6552 11.5736 17.7304 11.3842 17.7304C11.1948 17.7304 11.0131 17.6552 10.8791 17.5212C10.7452 17.3873 10.6699 17.2056 10.6699 17.0162C10.6699 16.7866 10.6018 16.5622 10.4743 16.3713C10.3468 16.1804 10.1655 16.0317 9.95338 15.9438C9.74129 15.856 9.50791 15.833 9.28276 15.8778C9.0576 15.9226 8.85078 16.0331 8.68845 16.1954C8.52612 16.3578 8.41558 16.5646 8.37079 16.7897C8.32601 17.0149 8.34899 17.2482 8.43684 17.4603C8.52469 17.6724 8.67347 17.8537 8.86434 17.9812C9.05522 18.1088 9.27963 18.1768 9.5092 18.1768C9.69864 18.1768 9.88032 18.2521 10.0143 18.386C10.1482 18.52 10.2235 18.7017 10.2235 18.8911C10.2235 19.0805 10.1482 19.2622 10.0143 19.3962C9.88032 19.5301 9.69864 19.6054 9.5092 19.6054Z" fill="#7B15F8"/>
<path d="M9.5092 23.3552C8.82271 23.3545 8.16456 23.0814 7.67914 22.596C7.19372 22.1106 6.92068 21.4525 6.91992 20.766C6.91992 20.5766 6.99518 20.3949 7.12913 20.2609C7.26308 20.127 7.44477 20.0517 7.6342 20.0517C7.82364 20.0517 8.00533 20.127 8.13928 20.2609C8.27323 20.3949 8.34849 20.5766 8.34849 20.766C8.34849 20.9956 8.41656 21.22 8.5441 21.4109C8.67164 21.6017 8.85292 21.7505 9.06501 21.8383C9.27711 21.9262 9.51049 21.9492 9.73564 21.9044C9.9608 21.8596 10.1676 21.7491 10.3299 21.5867C10.4923 21.4244 10.6028 21.2176 10.6476 20.9925C10.6924 20.7673 10.6694 20.5339 10.5816 20.3218C10.4937 20.1097 10.3449 19.9285 10.1541 19.8009C9.96318 19.6734 9.73876 19.6053 9.5092 19.6053C9.31976 19.6053 9.13808 19.5301 9.00412 19.3961C8.87017 19.2622 8.79491 19.0805 8.79491 18.8911C8.79491 18.7016 8.87017 18.5199 9.00412 18.386C9.13808 18.252 9.31976 18.1768 9.5092 18.1768C10.1959 18.1768 10.8545 18.4496 11.3401 18.9352C11.8257 19.4207 12.0985 20.0793 12.0985 20.766C12.0985 21.4527 11.8257 22.1113 11.3401 22.5969C10.8545 23.0824 10.1959 23.3552 9.5092 23.3552Z" fill="#7B15F8"/>
<path d="M9.5092 15.4391C9.31977 15.4391 9.13808 15.3639 9.00413 15.2299C8.87018 15.096 8.79492 14.9143 8.79492 14.7249V13.8913C8.79492 13.7019 8.87018 13.5202 9.00413 13.3862C9.13808 13.2523 9.31977 13.177 9.5092 13.177C9.69864 13.177 9.88033 13.2523 10.0143 13.3862C10.1482 13.5202 10.2235 13.7019 10.2235 13.8913V14.7249C10.2235 14.9143 10.1482 15.096 10.0143 15.2299C9.88033 15.3639 9.69864 15.4391 9.5092 15.4391Z" fill="#7B15F8"/>
<path d="M9.5092 24.6054C9.31977 24.6054 9.13808 24.5301 9.00413 24.3962C8.87018 24.2622 8.79492 24.0805 8.79492 23.8911V23.0576C8.79492 22.8681 8.87018 22.6864 9.00413 22.5525C9.13808 22.4185 9.31977 22.3433 9.5092 22.3433C9.69864 22.3433 9.88033 22.4185 10.0143 22.5525C10.1482 22.6864 10.2235 22.8681 10.2235 23.0576V23.8911C10.2235 24.0805 10.1482 24.2622 10.0143 24.3962C9.88033 24.5301 9.69864 24.6054 9.5092 24.6054Z" fill="#7B15F8"/>
</g>
</g>
<defs>
<clipPath id="clip0_474_588">
<rect width="31" height="30" fill="white" transform="translate(0 0.320068)"/>
</clipPath>
<clipPath id="clip1_474_588">
<rect width="31" height="30" fill="white" transform="translate(0 0.320068)"/>
</clipPath>
</defs>
</svg>
