<svg width="50" height="50" viewBox="0 0 50 50" fill="none" xmlns="http://www.w3.org/2000/svg">
<g clip-path="url(#clip0_474_513)">
<g clip-path="url(#clip1_474_513)">
<g clip-path="url(#clip2_474_513)">
<g clip-path="url(#clip3_474_513)">
<path d="M50 25C50 11.1929 38.8071 0 25 0C11.1929 0 0 11.1929 0 25C0 38.8071 11.1929 50 25 50C38.8071 50 50 38.8071 50 25Z" fill="#14152C"/>
<path d="M26.8474 27.9993L21.6909 33.8863C21.5616 34.0339 21.5332 34.2444 21.6186 34.4209L24.5605 40.509C24.7377 40.8758 25.2592 40.8775 25.4391 40.5122L29.4385 32.3843C29.5037 32.2517 29.5054 32.097 29.4432 31.963L27.6584 28.1156C27.5095 27.795 27.0801 27.7335 26.8474 27.9993Z" fill="#7B15F8"/>
<path d="M26.8474 27.9993L21.6909 33.8863C21.5616 34.0339 21.5332 34.2444 21.6186 34.4209L24.5605 40.509C24.7377 40.8758 25.2592 40.8775 25.4391 40.5122L29.4385 32.3843C29.5037 32.2517 29.5054 32.097 29.4432 31.963L27.6584 28.1156C27.5095 27.795 27.0801 27.7335 26.8474 27.9993Z" fill="url(#paint0_linear_474_513)"/>
<path d="M27.8313 28.5093L25.3877 40.6293L29.3973 32.4687C29.4886 32.2829 29.4908 32.0655 29.4032 31.8776L27.8313 28.5093Z" fill="url(#paint1_linear_474_513)"/>
<path d="M21.8396 29.8317L14.3634 27.5184C14.1761 27.4604 13.9723 27.5202 13.8457 27.67L9.48242 32.8353C9.21957 33.1465 9.43034 33.6236 9.83707 33.6392L18.8891 33.9835C19.0367 33.9891 19.1791 33.9277 19.2761 33.8164L22.0637 30.6198C22.2959 30.3535 22.1775 29.9361 21.8399 29.8317H21.8396Z" fill="#7B15F8"/>
<path d="M21.8396 29.8317L14.3634 27.5184C14.1761 27.4604 13.9723 27.5202 13.8457 27.67L9.48242 32.8353C9.21957 33.1465 9.43034 33.6236 9.83707 33.6392L18.8891 33.9835C19.0367 33.9891 19.1791 33.9277 19.2761 33.8164L22.0637 30.6198C22.2959 30.3535 22.1775 29.9361 21.8399 29.8317H21.8396Z" fill="url(#paint2_linear_474_513)"/>
<path d="M21.774 30.9385L9.70874 33.6405L18.7948 33.9808C19.0019 33.9887 19.2013 33.9021 19.337 33.7456L21.774 30.9387V30.9385Z" fill="url(#paint3_linear_474_513)"/>
<path d="M18.3999 26.1205L17.4651 18.3503C17.4416 18.1556 17.3041 17.9937 17.1156 17.9394L10.6202 16.0605C10.229 15.9475 9.87907 16.3342 10.0309 16.7121L13.4061 25.1184C13.4612 25.2557 13.5752 25.3603 13.7164 25.4037L17.7713 26.6464C18.1092 26.7498 18.4419 26.4717 18.3997 26.1207L18.3999 26.1205Z" fill="#7B15F8"/>
<path d="M18.3999 26.1205L17.4651 18.3503C17.4416 18.1556 17.3041 17.9937 17.1156 17.9394L10.6202 16.0605C10.229 15.9475 9.87907 16.3342 10.0309 16.7121L13.4061 25.1184C13.4612 25.2557 13.5752 25.3603 13.7164 25.4037L17.7713 26.6464C18.1092 26.7498 18.4419 26.4717 18.3997 26.1207L18.3999 26.1205Z" fill="url(#paint4_linear_474_513)"/>
<path d="M17.3636 26.5118L9.97852 16.5957L13.3713 25.0314C13.4486 25.2237 13.609 25.3705 13.8072 25.4308L17.3636 26.5118Z" fill="url(#paint5_linear_474_513)"/>
<path d="M21.0868 20.3413L27.5269 15.8946C27.6883 15.783 27.7675 15.5861 27.728 15.3938L26.365 8.77088C26.2828 8.37204 25.7776 8.24272 25.514 8.55295L19.6475 15.4553C19.552 15.5678 19.5122 15.7176 19.5399 15.8628L20.3291 20.0298C20.395 20.377 20.7961 20.5419 21.0868 20.341V20.3413Z" fill="#7B15F8"/>
<path d="M21.0993 20.3288L27.5394 15.8822C27.7008 15.7706 27.78 15.5736 27.7405 15.3814L26.3772 8.75867C26.295 8.35984 25.7898 8.23051 25.5262 8.54074L19.6597 15.4431C19.5642 15.5556 19.5244 15.7054 19.5521 15.8506L20.3413 20.0176C20.4072 20.3648 20.8083 20.5297 21.099 20.3288H21.0993Z" fill="url(#paint6_linear_474_513)"/>
<path d="M20.2578 19.6057L25.5922 8.45166L19.708 15.3834C19.5739 15.5413 19.5187 15.7516 19.5576 15.955L20.2576 19.6057H20.2578Z" fill="url(#paint7_linear_474_513)"/>
<path d="M26.9942 19.4888L34.3565 22.1425C34.5412 22.2091 34.7475 22.1588 34.8808 22.0149L39.4762 17.0549C39.7529 16.7562 39.5643 16.2698 39.1586 16.2357L30.1318 15.4768C29.9847 15.4645 29.8398 15.5193 29.7376 15.6261L26.8066 18.6914C26.5623 18.9469 26.6617 19.3691 26.9942 19.4888Z" fill="#7B15F8"/>
<path d="M26.9942 19.4888L34.3565 22.1425C34.5412 22.2091 34.7475 22.1588 34.8808 22.0149L39.4762 17.0549C39.7529 16.7562 39.5643 16.2698 39.1586 16.2357L30.1318 15.4768C29.9847 15.4645 29.8398 15.5193 29.7376 15.6261L26.8066 18.6914C26.5623 18.9469 26.6617 19.3691 26.9942 19.4888Z" fill="url(#paint8_linear_474_513)"/>
<path d="M27.1101 18.3872L39.2864 16.2413L30.2255 15.4848C30.0192 15.4675 29.8158 15.5448 29.6732 15.6948L27.1104 18.3872H27.1101Z" fill="url(#paint9_linear_474_513)"/>
<path d="M28.8076 25.0256L32.3266 32.0158C32.4147 32.1911 32.599 32.2965 32.7947 32.2839L39.5421 31.8443C39.9483 31.8179 40.146 31.3352 39.875 31.0313L33.8446 24.2717C33.7464 24.1616 33.6035 24.1016 33.4559 24.109L29.2198 24.3181C28.8669 24.3353 28.6484 24.7102 28.8074 25.0259L28.8076 25.0256Z" fill="#7B15F8"/>
<path d="M28.8076 25.0256L32.3266 32.0158C32.4147 32.1911 32.599 32.2965 32.7947 32.2839L39.5421 31.8443C39.9483 31.8179 40.146 31.3352 39.875 31.0313L33.8446 24.2717C33.7464 24.1616 33.6035 24.1016 33.4559 24.109L29.2198 24.3181C28.8669 24.3353 28.6484 24.7102 28.8074 25.0259L28.8076 25.0256Z" fill="url(#paint10_linear_474_513)"/>
<path d="M29.6501 24.3057L39.9648 31.1229L33.908 24.3417C33.77 24.1872 33.5694 24.1036 33.3626 24.1142L29.6504 24.3057H29.6501Z" fill="url(#paint11_linear_474_513)"/>
<path d="M25.1245 25.4292C24.5418 26.0312 23.9072 26.4626 23.3576 26.6771C22.7949 26.8967 22.3788 26.8701 22.1646 26.6628C21.9503 26.4554 21.9101 26.0403 22.1115 25.4707C22.308 24.9144 22.7186 24.2663 23.3013 23.6643C23.884 23.0624 24.5186 22.631 25.0682 22.4165C25.6309 22.1969 26.047 22.2235 26.2612 22.4308C26.4755 22.6381 26.5155 23.0533 26.3143 23.6229C26.1179 24.1789 25.7072 24.8273 25.1245 25.4292Z" stroke="white" stroke-width="0.472034"/>
<path d="M25.1245 25.4292C24.5418 26.0312 23.9072 26.4626 23.3576 26.6771C22.7949 26.8967 22.3788 26.8701 22.1646 26.6628C21.9503 26.4554 21.9101 26.0403 22.1115 25.4707C22.308 24.9144 22.7186 24.2663 23.3013 23.6643C23.884 23.0624 24.5186 22.631 25.0682 22.4165C25.6309 22.1969 26.047 22.2235 26.2612 22.4308C26.4755 22.6381 26.5155 23.0533 26.3143 23.6229C26.1179 24.1789 25.7072 24.8273 25.1245 25.4292Z" stroke="white" stroke-width="0.472034"/>
<path d="M25.1245 25.4292C24.5418 26.0312 23.9072 26.4626 23.3576 26.6771C22.7949 26.8967 22.3788 26.8701 22.1646 26.6628C21.9503 26.4554 21.9101 26.0403 22.1115 25.4707C22.308 24.9144 22.7186 24.2663 23.3013 23.6643C23.884 23.0624 24.5186 22.631 25.0682 22.4165C25.6309 22.1969 26.047 22.2235 26.2612 22.4308C26.4755 22.6381 26.5155 23.0533 26.3143 23.6229C26.1179 24.1789 25.7072 24.8273 25.1245 25.4292Z" stroke="white" stroke-width="0.472034"/>
<path d="M23.3471 25.4729C22.7358 24.8999 22.2942 24.2725 22.0709 23.7266C21.8423 23.1673 21.8621 22.7509 22.0662 22.5333C22.2701 22.3158 22.6844 22.2689 23.2573 22.4609C23.8165 22.6485 24.4713 23.0486 25.0826 23.6217C25.694 24.1947 26.1355 24.8221 26.3588 25.3683C26.5874 25.9275 26.5676 26.3439 26.3635 26.5613C26.1597 26.7788 25.7453 26.8257 25.1725 26.6336C24.6132 26.4461 23.9584 26.046 23.3471 25.4729Z" stroke="white" stroke-width="0.472034"/>
<path d="M23.3471 25.4729C22.7358 24.8999 22.2942 24.2725 22.0709 23.7266C21.8423 23.1673 21.8621 22.7509 22.0662 22.5333C22.2701 22.3158 22.6844 22.2689 23.2573 22.4609C23.8165 22.6485 24.4713 23.0486 25.0826 23.6217C25.694 24.1947 26.1355 24.8221 26.3588 25.3683C26.5874 25.9275 26.5676 26.3439 26.3635 26.5613C26.1597 26.7788 25.7453 26.8257 25.1725 26.6336C24.6132 26.4461 23.9584 26.046 23.3471 25.4729Z" stroke="white" stroke-width="0.472034"/>
<path d="M23.3471 25.4729C22.7358 24.8999 22.2942 24.2725 22.0709 23.7266C21.8423 23.1673 21.8621 22.7509 22.0662 22.5333C22.2701 22.3158 22.6844 22.2689 23.2573 22.4609C23.8165 22.6485 24.4713 23.0486 25.0826 23.6217C25.694 24.1947 26.1355 24.8221 26.3588 25.3683C26.5874 25.9275 26.5676 26.3439 26.3635 26.5613C26.1597 26.7788 25.7453 26.8257 25.1725 26.6336C24.6132 26.4461 23.9584 26.046 23.3471 25.4729Z" stroke="white" stroke-width="0.472034"/>
<path d="M23.3471 25.4729C22.7358 24.8999 22.2942 24.2725 22.0709 23.7266C21.8423 23.1673 21.8621 22.7509 22.0662 22.5333C22.2701 22.3158 22.6844 22.2689 23.2573 22.4609C23.8165 22.6485 24.4713 23.0486 25.0826 23.6217C25.694 24.1947 26.1355 24.8221 26.3588 25.3683C26.5874 25.9275 26.5676 26.3439 26.3635 26.5613C26.1597 26.7788 25.7453 26.8257 25.1725 26.6336C24.6132 26.4461 23.9584 26.046 23.3471 25.4729Z" stroke="white" stroke-width="0.472034"/>
<path d="M23.3471 25.4729C22.7358 24.8999 22.2942 24.2725 22.0709 23.7266C21.8423 23.1673 21.8621 22.7509 22.0662 22.5333C22.2701 22.3158 22.6844 22.2689 23.2573 22.4609C23.8165 22.6485 24.4713 23.0486 25.0826 23.6217C25.694 24.1947 26.1355 24.8221 26.3588 25.3683C26.5874 25.9275 26.5676 26.3439 26.3635 26.5613C26.1597 26.7788 25.7453 26.8257 25.1725 26.6336C24.6132 26.4461 23.9584 26.046 23.3471 25.4729Z" stroke="white" stroke-width="0.472034"/>
<path d="M23.3471 25.4729C22.7358 24.8999 22.2942 24.2725 22.0709 23.7266C21.8423 23.1673 21.8621 22.7509 22.0662 22.5333C22.2701 22.3158 22.6844 22.2689 23.2573 22.4609C23.8165 22.6485 24.4713 23.0486 25.0826 23.6217C25.694 24.1947 26.1355 24.8221 26.3588 25.3683C26.5874 25.9275 26.5676 26.3439 26.3635 26.5613C26.1597 26.7788 25.7453 26.8257 25.1725 26.6336C24.6132 26.4461 23.9584 26.046 23.3471 25.4729Z" stroke="white" stroke-width="0.472034"/>
<path d="M24.2221 25.1731C24.5542 25.1731 24.8235 24.9039 24.8235 24.5717C24.8235 24.2395 24.5542 23.9702 24.2221 23.9702C23.8899 23.9702 23.6206 24.2395 23.6206 24.5717C23.6206 24.9039 23.8899 25.1731 24.2221 25.1731Z" fill="white"/>
</g>
</g>
</g>
</g>
<defs>
<linearGradient id="paint0_linear_474_513" x1="27.2139" y1="34.4009" x2="24.2816" y2="34.1566" gradientUnits="userSpaceOnUse">
<stop stop-opacity="0.45"/>
<stop offset="1" stop-opacity="0"/>
</linearGradient>
<linearGradient id="paint1_linear_474_513" x1="27.4275" y1="28.5093" x2="27.4275" y2="40.6295" gradientUnits="userSpaceOnUse">
<stop stop-color="#7B15F8"/>
<stop offset="1" stop-color="#46326F"/>
</linearGradient>
<linearGradient id="paint2_linear_474_513" x1="16.1417" y1="32.7724" x2="15.1712" y2="29.9946" gradientUnits="userSpaceOnUse">
<stop stop-opacity="0.45"/>
<stop offset="1" stop-opacity="0"/>
</linearGradient>
<linearGradient id="paint3_linear_474_513" x1="21.6098" y1="30.5698" x2="10.5392" y2="35.5036" gradientUnits="userSpaceOnUse">
<stop stop-color="#7B15F8"/>
<stop offset="1" stop-color="#46326F"/>
</linearGradient>
<linearGradient id="paint4_linear_474_513" x1="13.3921" y1="22.1158" x2="15.5331" y2="20.0975" gradientUnits="userSpaceOnUse">
<stop stop-opacity="0.45"/>
<stop offset="1" stop-opacity="0"/>
</linearGradient>
<linearGradient id="paint5_linear_474_513" x1="17.6334" y1="26.2114" x2="8.61567" y2="18.1135" gradientUnits="userSpaceOnUse">
<stop stop-color="#7B15F8"/>
<stop offset="1" stop-color="#46326F"/>
</linearGradient>
<linearGradient id="paint6_linear_474_513" x1="22.0793" y1="13.9526" x2="24.8625" y2="14.907" gradientUnits="userSpaceOnUse">
<stop stop-opacity="0.45"/>
<stop offset="1" stop-opacity="0"/>
</linearGradient>
<linearGradient id="paint7_linear_474_513" x1="19.5456" y1="14.0287" x2="25.5922" y2="14.0287" gradientUnits="userSpaceOnUse">
<stop stop-color="#7B15F8"/>
<stop offset="1" stop-color="#46326F"/>
</linearGradient>
<linearGradient id="paint8_linear_474_513" x1="32.8214" y1="16.8125" x2="33.6635" y2="19.632" gradientUnits="userSpaceOnUse">
<stop stop-opacity="0.45"/>
<stop offset="1" stop-opacity="0"/>
</linearGradient>
<linearGradient id="paint9_linear_474_513" x1="27.2574" y1="18.7631" x2="38.5425" y2="14.3419" gradientUnits="userSpaceOnUse">
<stop stop-color="#7B15F8"/>
<stop offset="1" stop-color="#46326F"/>
</linearGradient>
<linearGradient id="paint10_linear_474_513" x1="34.8785" y1="27.0909" x2="33.5504" y2="29.7166" gradientUnits="userSpaceOnUse">
<stop stop-opacity="0.45"/>
<stop offset="1" stop-opacity="0"/>
</linearGradient>
<linearGradient id="paint11_linear_474_513" x1="29.4986" y1="24.6799" x2="40.7311" y2="29.2324" gradientUnits="userSpaceOnUse">
<stop stop-color="#7B15F8"/>
<stop offset="1" stop-color="#46326F"/>
</linearGradient>
<clipPath id="clip0_474_513">
<rect width="50" height="50" rx="25" fill="white"/>
</clipPath>
<clipPath id="clip1_474_513">
<rect width="50" height="50" fill="white"/>
</clipPath>
<clipPath id="clip2_474_513">
<rect width="50" height="50" fill="white"/>
</clipPath>
<clipPath id="clip3_474_513">
<rect width="50" height="50" fill="white"/>
</clipPath>
</defs>
</svg>
