<svg width="153" height="50" viewBox="0 0 153 50" fill="none" xmlns="http://www.w3.org/2000/svg">
<path d="M69.4079 20.6409H66.6484C66.5422 20.0513 66.3447 19.5324 66.0558 19.0842C65.7668 18.6361 65.4131 18.2558 64.9944 17.9433C64.5758 17.6308 64.107 17.3949 63.5881 17.2357C63.0751 17.0765 62.5297 16.9969 61.9518 16.9969C60.9082 16.9969 59.9736 17.2593 59.1481 17.7841C58.3285 18.3089 57.6799 19.0783 57.2022 20.0925C56.7305 21.1067 56.4947 22.345 56.4947 23.8073C56.4947 25.2814 56.7305 26.5256 57.2022 27.5398C57.6799 28.5539 58.3314 29.3205 59.1569 29.8394C59.9824 30.3583 60.9111 30.6177 61.943 30.6177C62.5149 30.6177 63.0574 30.5411 63.5704 30.3877C64.0893 30.2285 64.5581 29.9956 64.9767 29.689C65.3954 29.3824 65.7492 29.008 66.0381 28.5657C66.3329 28.1176 66.5363 27.6046 66.6484 27.0268L69.4079 27.0356C69.2605 27.926 68.9745 28.7456 68.55 29.4944C68.1313 30.2374 67.5918 30.8801 66.9314 31.4226C66.2769 31.9592 65.528 32.3749 64.6848 32.6697C63.8416 32.9645 62.9218 33.1119 61.9253 33.1119C60.3568 33.1119 58.9594 32.7404 57.7329 31.9975C56.5065 31.2486 55.5394 30.1784 54.8319 28.7869C54.1302 27.3953 53.7794 25.7354 53.7794 23.8073C53.7794 21.8733 54.1331 20.2134 54.8407 18.8277C55.5483 17.4362 56.5153 16.3689 57.7418 15.626C58.9682 14.8771 60.3627 14.5027 61.9253 14.5027C62.8864 14.5027 63.7827 14.6413 64.6141 14.9184C65.4514 15.1896 66.2032 15.5906 66.8695 16.1213C67.5358 16.6461 68.0871 17.2888 68.5234 18.0494C68.9598 18.8042 69.2546 19.668 69.4079 20.6409ZM70.5984 14.7504H73.7029L78.4348 22.9847H78.6294L83.3613 14.7504H86.4657L79.8941 25.7531V32.8643H77.17V25.7531L70.5984 14.7504ZM102.984 14.7504V32.8643H100.472L91.2649 19.5795H91.0968V32.8643H88.3638V14.7504H90.8934L100.11 28.0528H100.278V14.7504H102.984ZM112.948 26.9914H115.637L117.53 29.4591L118.423 30.5558L121.439 34.4917H118.644L116.628 31.8648L115.938 30.9096L112.948 26.9914ZM122.023 23.8073C122.023 25.7413 121.669 27.4041 120.962 28.7957C120.254 30.1814 119.284 31.2486 118.052 31.9975C116.825 32.7404 115.431 33.1119 113.868 33.1119C112.3 33.1119 110.899 32.7404 109.667 31.9975C108.441 31.2486 107.474 30.1784 106.766 28.7869C106.058 27.3953 105.705 25.7354 105.705 23.8073C105.705 21.8733 106.058 20.2134 106.766 18.8277C107.474 17.4362 108.441 16.3689 109.667 15.626C110.899 14.8771 112.3 14.5027 113.868 14.5027C115.431 14.5027 116.825 14.8771 118.052 15.626C119.284 16.3689 120.254 17.4362 120.962 18.8277C121.669 20.2134 122.023 21.8733 122.023 23.8073ZM119.317 23.8073C119.317 22.3332 119.078 21.092 118.6 20.0837C118.129 19.0695 117.48 18.303 116.654 17.7841C115.835 17.2593 114.906 16.9969 113.868 16.9969C112.825 16.9969 111.893 17.2593 111.073 17.7841C110.254 18.303 109.605 19.0695 109.128 20.0837C108.656 21.092 108.42 22.3332 108.42 23.8073C108.42 25.2814 108.656 26.5256 109.128 27.5398C109.605 28.5481 110.254 29.3146 111.073 29.8394C111.893 30.3583 112.825 30.6177 113.868 30.6177C114.906 30.6177 115.835 30.3583 116.654 29.8394C117.48 29.3146 118.129 28.5481 118.6 27.5398C119.078 26.5256 119.317 25.2814 119.317 23.8073ZM132.187 32.8643H129.286L135.805 14.7504H138.962L145.481 32.8643H142.58L137.459 18.0406H137.317L132.187 32.8643ZM132.674 25.7708H142.085V28.0704H132.674V25.7708ZM147.324 32.8643V19.2788H149.968V32.8643H147.324ZM148.659 17.1826C148.199 17.1826 147.804 17.0293 147.474 16.7227C147.15 16.4102 146.988 16.0387 146.988 15.6083C146.988 15.1719 147.15 14.8005 147.474 14.4939C147.804 14.1813 148.199 14.0251 148.659 14.0251C149.119 14.0251 149.511 14.1813 149.836 14.4939C150.166 14.8005 150.331 15.1719 150.331 15.6083C150.331 16.0387 150.166 16.4102 149.836 16.7227C149.511 17.0293 149.119 17.1826 148.659 17.1826Z" fill="white"/>
<path d="M26.5607 29.8277L18.726 38.7723C18.5295 38.9966 18.4863 39.3164 18.6161 39.5846L23.086 48.8349C23.3552 49.3921 24.1476 49.3947 24.421 48.8397L30.4977 36.4901C30.5967 36.2888 30.5993 36.0536 30.5048 35.85L27.7929 30.0043C27.5668 29.5172 26.9143 29.4238 26.5607 29.8277Z" fill="#7B15F8"/>
<path d="M26.5607 29.8277L18.726 38.7723C18.5295 38.9966 18.4863 39.3164 18.6161 39.5846L23.086 48.8349C23.3552 49.3921 24.1476 49.3947 24.421 48.8397L30.4977 36.4901C30.5967 36.2888 30.5993 36.0536 30.5048 35.85L27.7929 30.0043C27.5668 29.5172 26.9143 29.4238 26.5607 29.8277Z" fill="url(#paint0_linear_296_652)"/>
<path d="M28.0556 30.6021L24.3428 49.0171L30.4349 36.618C30.5736 36.3357 30.577 36.0053 30.4439 35.7199L28.0556 30.6021Z" fill="url(#paint1_linear_296_652)"/>
<path d="M18.952 32.612L7.59278 29.0972C7.30816 29.0091 6.99841 29.0998 6.80604 29.3274L0.176565 37.1756C-0.222801 37.6485 0.0974415 38.3734 0.715428 38.397L14.469 38.9201C14.6932 38.9287 14.9096 38.8353 15.057 38.6662L19.2925 33.8093C19.6454 33.4047 19.4654 32.7706 18.9524 32.612H18.952Z" fill="#7B15F8"/>
<path d="M18.952 32.612L7.59278 29.0972C7.30816 29.0091 6.99841 29.0998 6.80604 29.3274L0.176565 37.1756C-0.222801 37.6485 0.0974415 38.3734 0.715428 38.397L14.469 38.9201C14.6932 38.9287 14.9096 38.8353 15.057 38.6662L19.2925 33.8093C19.6454 33.4047 19.4654 32.7706 18.9524 32.612H18.952Z" fill="url(#paint2_linear_296_652)"/>
<path d="M18.8524 34.293L0.520508 38.3984L14.3258 38.9155C14.6404 38.9275 14.9434 38.7959 15.1497 38.5581L18.8524 34.2933V34.293Z" fill="url(#paint3_linear_296_652)"/>
<path d="M13.7261 26.9726L12.3056 15.1668C12.27 14.8709 12.0611 14.6249 11.7746 14.5424L1.9056 11.6876C1.31124 11.5158 0.779497 12.1035 1.01012 12.6776L6.1385 25.4502C6.22213 25.6587 6.39537 25.8176 6.60987 25.8836L12.771 27.7717C13.2843 27.9289 13.7898 27.5062 13.7257 26.973L13.7261 26.9726Z" fill="#7B15F8"/>
<path d="M13.7261 26.9726L12.3056 15.1668C12.27 14.8709 12.0611 14.6249 11.7746 14.5424L1.9056 11.6876C1.31124 11.5158 0.779497 12.1035 1.01012 12.6776L6.1385 25.4502C6.22213 25.6587 6.39537 25.8176 6.60987 25.8836L12.771 27.7717C13.2843 27.9289 13.7898 27.5062 13.7257 26.973L13.7261 26.9726Z" fill="url(#paint4_linear_296_652)"/>
<path d="M12.1515 27.5669L0.930664 12.5005L6.08567 25.3177C6.20305 25.6098 6.44679 25.8329 6.74791 25.9244L12.1515 27.5669Z" fill="url(#paint5_linear_296_652)"/>
<path d="M17.8088 18.1919L27.5939 11.4356C27.8391 11.2662 27.9595 10.9669 27.8995 10.6748L25.8284 0.61189C25.7035 0.00590317 24.9359 -0.190592 24.5354 0.280772L15.6219 10.7682C15.4768 10.9392 15.4164 11.1668 15.4584 11.3873L16.6576 17.7186C16.7577 18.2463 17.3671 18.4967 17.8088 18.1915V18.1919Z" fill="#7B15F8"/>
<path d="M17.8268 18.1729L27.6118 11.4167C27.8571 11.2472 27.9774 10.948 27.9174 10.6559L25.846 0.593335C25.7211 -0.0126515 24.9535 -0.209147 24.553 0.262217L15.6395 10.7496C15.4943 10.9206 15.434 11.1482 15.476 11.3687L16.6752 17.7001C16.7753 18.2277 17.3847 18.4782 17.8264 18.1729H17.8268Z" fill="url(#paint6_linear_296_652)"/>
<path d="M16.5483 17.0743L24.6533 0.126953L15.7128 10.659C15.5092 10.899 15.4252 11.2185 15.4844 11.5275L16.5479 17.0743H16.5483Z" fill="url(#paint7_linear_296_652)"/>
<path d="M26.7841 16.8973L37.9705 20.9292C38.251 21.0305 38.5645 20.954 38.767 20.7353L45.7493 13.1991C46.1697 12.7454 45.8832 12.0063 45.2667 11.9545L31.5514 10.8014C31.3279 10.7827 31.1078 10.8659 30.9525 11.0283L26.4991 15.6857C26.1279 16.0738 26.279 16.7154 26.7841 16.8973Z" fill="#7B15F8"/>
<path d="M26.7841 16.8973L37.9705 20.9292C38.251 21.0305 38.5645 20.954 38.767 20.7353L45.7493 13.1991C46.1697 12.7454 45.8832 12.0063 45.2667 11.9545L31.5514 10.8014C31.3279 10.7827 31.1078 10.8659 30.9525 11.0283L26.4991 15.6857C26.1279 16.0738 26.279 16.7154 26.7841 16.8973Z" fill="url(#paint8_linear_296_652)"/>
<path d="M26.96 15.2231L45.4606 11.9625L31.6935 10.8132C31.38 10.7869 31.071 10.9043 30.8542 11.1323L26.9603 15.2231H26.96Z" fill="url(#paint9_linear_296_652)"/>
<path d="M29.5395 25.3092L34.8861 35.9301C35.02 36.1963 35.3001 36.3564 35.5975 36.3373L45.8494 35.6695C46.4666 35.6293 46.767 34.8958 46.3553 34.4342L37.1927 24.1636C37.0435 23.9963 36.8263 23.9052 36.6021 23.9165L30.1657 24.2341C29.6295 24.2603 29.2976 24.8299 29.5391 25.3096L29.5395 25.3092Z" fill="#7B15F8"/>
<path d="M29.5395 25.3092L34.8861 35.9301C35.02 36.1963 35.3001 36.3564 35.5975 36.3373L45.8494 35.6695C46.4666 35.6293 46.767 34.8958 46.3553 34.4342L37.1927 24.1636C37.0435 23.9963 36.8263 23.9052 36.6021 23.9165L30.1657 24.2341C29.6295 24.2603 29.2976 24.8299 29.5391 25.3096L29.5395 25.3092Z" fill="url(#paint10_linear_296_652)"/>
<path d="M30.8193 24.2157L46.4914 34.5737L37.2887 24.2704C37.0791 24.0357 36.7742 23.9086 36.46 23.9247L30.8197 24.2157H30.8193Z" fill="url(#paint11_linear_296_652)"/>
<path d="M23.9434 25.9223C23.058 26.8369 22.0939 27.4924 21.2588 27.8183C20.4038 28.152 19.7716 28.1115 19.4461 27.7965C19.1206 27.4815 19.0595 26.8508 19.3655 25.9853C19.664 25.1401 20.288 24.1553 21.1733 23.2407C22.0587 22.3261 23.0228 21.6706 23.8579 21.3448C24.7129 21.011 25.3451 21.0515 25.6706 21.3665C25.9961 21.6815 26.0568 22.3123 25.7512 23.1777C25.4527 24.0226 24.8287 25.0077 23.9434 25.9223Z" stroke="white" stroke-width="0.113622"/>
<path d="M23.9434 25.9223C23.058 26.8369 22.0939 27.4924 21.2588 27.8183C20.4038 28.152 19.7716 28.1115 19.4461 27.7965C19.1206 27.4815 19.0595 26.8508 19.3655 25.9853C19.664 25.1401 20.288 24.1553 21.1733 23.2407C22.0587 22.3261 23.0228 21.6706 23.8579 21.3448C24.7129 21.011 25.3451 21.0515 25.6706 21.3665C25.9961 21.6815 26.0568 22.3123 25.7512 23.1777C25.4527 24.0226 24.8287 25.0077 23.9434 25.9223Z" stroke="white" stroke-width="0.113622"/>
<path d="M23.9434 25.9223C23.058 26.8369 22.0939 27.4924 21.2588 27.8183C20.4038 28.152 19.7716 28.1115 19.4461 27.7965C19.1206 27.4815 19.0595 26.8508 19.3655 25.9853C19.664 25.1401 20.288 24.1553 21.1733 23.2407C22.0587 22.3261 23.0228 21.6706 23.8579 21.3448C24.7129 21.011 25.3451 21.0515 25.6706 21.3665C25.9961 21.6815 26.0568 22.3123 25.7512 23.1777C25.4527 24.0226 24.8287 25.0077 23.9434 25.9223Z" stroke="white" stroke-width="0.113622"/>
<path d="M21.242 25.9891C20.3131 25.1184 19.6422 24.1652 19.3029 23.3357C18.9556 22.486 18.9856 21.8534 19.2958 21.5226C19.6055 21.1923 20.2351 21.121 21.1055 21.4128C21.9552 21.6977 22.95 22.3056 23.8789 23.1763C24.8078 24.0471 25.4786 25.0003 25.818 25.8302C26.1652 26.6799 26.1352 27.3125 25.8251 27.6429C25.5154 27.9732 24.8858 28.0445 24.0154 27.7527C23.1657 27.4677 22.1708 26.8599 21.242 25.9891Z" stroke="white" stroke-width="0.113622"/>
<path d="M21.242 25.9891C20.3131 25.1184 19.6422 24.1652 19.3029 23.3357C18.9556 22.486 18.9856 21.8534 19.2958 21.5226C19.6055 21.1923 20.2351 21.121 21.1055 21.4128C21.9552 21.6977 22.95 22.3056 23.8789 23.1763C24.8078 24.0471 25.4786 25.0003 25.818 25.8302C26.1652 26.6799 26.1352 27.3125 25.8251 27.6429C25.5154 27.9732 24.8858 28.0445 24.0154 27.7527C23.1657 27.4677 22.1708 26.8599 21.242 25.9891Z" stroke="white" stroke-width="0.113622"/>
<path d="M21.242 25.9891C20.3131 25.1184 19.6422 24.1652 19.3029 23.3357C18.9556 22.486 18.9856 21.8534 19.2958 21.5226C19.6055 21.1923 20.2351 21.121 21.1055 21.4128C21.9552 21.6977 22.95 22.3056 23.8789 23.1763C24.8078 24.0471 25.4786 25.0003 25.818 25.8302C26.1652 26.6799 26.1352 27.3125 25.8251 27.6429C25.5154 27.9732 24.8858 28.0445 24.0154 27.7527C23.1657 27.4677 22.1708 26.8599 21.242 25.9891Z" stroke="white" stroke-width="0.113622"/>
<path d="M21.242 25.9891C20.3131 25.1184 19.6422 24.1652 19.3029 23.3357C18.9556 22.486 18.9856 21.8534 19.2958 21.5226C19.6055 21.1923 20.2351 21.121 21.1055 21.4128C21.9552 21.6977 22.95 22.3056 23.8789 23.1763C24.8078 24.0471 25.4786 25.0003 25.818 25.8302C26.1652 26.6799 26.1352 27.3125 25.8251 27.6429C25.5154 27.9732 24.8858 28.0445 24.0154 27.7527C23.1657 27.4677 22.1708 26.8599 21.242 25.9891Z" stroke="white" stroke-width="0.113622"/>
<path d="M21.242 25.9891C20.3131 25.1184 19.6422 24.1652 19.3029 23.3357C18.9556 22.486 18.9856 21.8534 19.2958 21.5226C19.6055 21.1923 20.2351 21.121 21.1055 21.4128C21.9552 21.6977 22.95 22.3056 23.8789 23.1763C24.8078 24.0471 25.4786 25.0003 25.818 25.8302C26.1652 26.6799 26.1352 27.3125 25.8251 27.6429C25.5154 27.9732 24.8858 28.0445 24.0154 27.7527C23.1657 27.4677 22.1708 26.8599 21.242 25.9891Z" stroke="white" stroke-width="0.113622"/>
<path d="M21.242 25.9891C20.3131 25.1184 19.6422 24.1652 19.3029 23.3357C18.9556 22.486 18.9856 21.8534 19.2958 21.5226C19.6055 21.1923 20.2351 21.121 21.1055 21.4128C21.9552 21.6977 22.95 22.3056 23.8789 23.1763C24.8078 24.0471 25.4786 25.0003 25.818 25.8302C26.1652 26.6799 26.1352 27.3125 25.8251 27.6429C25.5154 27.9732 24.8858 28.0445 24.0154 27.7527C23.1657 27.4677 22.1708 26.8599 21.242 25.9891Z" stroke="white" stroke-width="0.113622"/>
<path d="M22.5721 25.5338C23.0768 25.5338 23.4859 25.1246 23.4859 24.6199C23.4859 24.1152 23.0768 23.7061 22.5721 23.7061C22.0673 23.7061 21.6582 24.1152 21.6582 24.6199C21.6582 25.1246 22.0673 25.5338 22.5721 25.5338Z" fill="white"/>
<defs>
<linearGradient id="paint0_linear_296_652" x1="27.1175" y1="39.5542" x2="22.6623" y2="39.1829" gradientUnits="userSpaceOnUse">
<stop stop-opacity="0.45"/>
<stop offset="1" stop-opacity="0"/>
</linearGradient>
<linearGradient id="paint1_linear_296_652" x1="27.4421" y1="30.6021" x2="27.4421" y2="49.0175" gradientUnits="userSpaceOnUse">
<stop stop-color="#7B15F8"/>
<stop offset="1" stop-color="#46326F"/>
</linearGradient>
<linearGradient id="paint2_linear_296_652" x1="10.2946" y1="37.08" x2="8.82012" y2="32.8595" gradientUnits="userSpaceOnUse">
<stop stop-opacity="0.45"/>
<stop offset="1" stop-opacity="0"/>
</linearGradient>
<linearGradient id="paint3_linear_296_652" x1="18.603" y1="33.7327" x2="1.78235" y2="41.2292" gradientUnits="userSpaceOnUse">
<stop stop-color="#7B15F8"/>
<stop offset="1" stop-color="#46326F"/>
</linearGradient>
<linearGradient id="paint4_linear_296_652" x1="6.11713" y1="20.888" x2="9.37018" y2="17.8213" gradientUnits="userSpaceOnUse">
<stop stop-opacity="0.45"/>
<stop offset="1" stop-opacity="0"/>
</linearGradient>
<linearGradient id="paint5_linear_296_652" x1="12.5614" y1="27.1105" x2="-1.14004" y2="14.8067" gradientUnits="userSpaceOnUse">
<stop stop-color="#7B15F8"/>
<stop offset="1" stop-color="#46326F"/>
</linearGradient>
<linearGradient id="paint6_linear_296_652" x1="19.3159" y1="8.48504" x2="23.5447" y2="9.93513" gradientUnits="userSpaceOnUse">
<stop stop-opacity="0.45"/>
<stop offset="1" stop-opacity="0"/>
</linearGradient>
<linearGradient id="paint7_linear_296_652" x1="15.466" y1="8.60064" x2="24.6533" y2="8.60064" gradientUnits="userSpaceOnUse">
<stop stop-color="#7B15F8"/>
<stop offset="1" stop-color="#46326F"/>
</linearGradient>
<linearGradient id="paint8_linear_296_652" x1="35.6381" y1="12.8309" x2="36.9175" y2="17.1148" gradientUnits="userSpaceOnUse">
<stop stop-opacity="0.45"/>
<stop offset="1" stop-opacity="0"/>
</linearGradient>
<linearGradient id="paint9_linear_296_652" x1="27.1838" y1="15.7942" x2="44.3303" y2="9.07661" gradientUnits="userSpaceOnUse">
<stop stop-color="#7B15F8"/>
<stop offset="1" stop-color="#46326F"/>
</linearGradient>
<linearGradient id="paint10_linear_296_652" x1="38.7635" y1="28.4471" x2="36.7457" y2="32.4366" gradientUnits="userSpaceOnUse">
<stop stop-opacity="0.45"/>
<stop offset="1" stop-opacity="0"/>
</linearGradient>
<linearGradient id="paint11_linear_296_652" x1="30.5891" y1="24.7842" x2="47.6557" y2="31.7013" gradientUnits="userSpaceOnUse">
<stop stop-color="#7B15F8"/>
<stop offset="1" stop-color="#46326F"/>
</linearGradient>
</defs>
</svg>
