<svg width="65" height="39" viewBox="0 0 65 39" fill="none" xmlns="http://www.w3.org/2000/svg">
<path d="M19.6366 0.228516C24.7363 0.228516 29.6272 2.25436 33.2332 5.86039C36.8392 9.46642 38.8651 14.3573 38.8651 19.4569C38.8651 24.5566 36.8392 29.4475 33.2332 33.0535C29.6272 36.6595 24.7363 38.6854 19.6366 38.6854C14.5369 38.6854 9.64611 36.6595 6.04008 33.0535C2.43405 29.4475 0.408203 24.5566 0.408203 19.4569C0.408203 14.3573 2.43405 9.46642 6.04008 5.86039C9.64611 2.25436 14.5369 0.228516 19.6366 0.228516ZM48.4793 3.43325C53.2864 3.43325 56.4911 10.6087 56.4911 19.4569C56.4911 28.3052 53.2864 35.4806 48.4793 35.4806C43.6722 35.4806 40.4674 28.3052 40.4674 19.4569C40.4674 10.6087 43.6722 3.43325 48.4793 3.43325ZM61.2982 5.03562C62.516 5.03562 63.58 7.68594 64.1184 12.2335L64.269 13.6532L64.3299 14.4063L64.4261 15.9894L64.4581 16.8194L64.4966 18.5532L64.503 19.4569L64.4966 20.3607L64.4581 22.0944L64.4261 22.9277L64.3299 24.5076L64.2658 25.2607L64.1216 26.6804C63.58 31.2312 62.5192 33.8783 61.2982 33.8783C60.0804 33.8783 59.0165 31.228 58.4781 26.6804L58.3274 25.2607L58.2666 24.5076L58.1704 22.9245L58.1384 22.0944L58.0999 20.3607V18.5532L58.1384 16.8194L58.1704 15.9862L58.2666 14.4063L58.3306 13.6532L58.4749 12.2335C59.0165 7.68274 60.0772 5.03562 61.2982 5.03562Z" fill="white"/>
</svg>
