<svg width="177" height="188" viewBox="0 0 177 188" fill="none" xmlns="http://www.w3.org/2000/svg">
<path d="M101.006 113.427L71.2123 147.442C70.4651 148.294 70.3011 149.511 70.7945 150.53L87.7926 185.707C88.8164 187.826 91.8296 187.836 92.8692 185.726L115.978 138.763C116.354 137.997 116.364 137.103 116.005 136.329L105.692 114.099C104.832 112.246 102.351 111.891 101.006 113.427Z" fill="#7B15F8"/>
<path d="M101.006 113.427L71.2123 147.442C70.4651 148.294 70.3011 149.511 70.7945 150.53L87.7926 185.707C88.8164 187.826 91.8296 187.836 92.8692 185.726L115.978 138.763C116.354 137.997 116.364 137.103 116.005 136.329L105.692 114.099C104.832 112.246 102.351 111.891 101.006 113.427Z" fill="url(#paint0_linear_296_714)"/>
<path d="M106.689 116.373L92.5703 186.402L115.737 139.251C116.265 138.177 116.278 136.921 115.772 135.835L106.689 116.373Z" fill="url(#paint1_linear_296_714)"/>
<path d="M72.0705 124.017L28.8737 110.651C27.7914 110.315 26.6135 110.661 25.8819 111.526L0.671438 141.371C-0.847267 143.169 0.370549 145.926 2.72062 146.016L55.0225 148.005C55.8753 148.038 56.6981 147.683 57.2585 147.04L73.3653 128.57C74.7072 127.031 74.0228 124.62 72.072 124.017H72.0705Z" fill="#7B15F8"/>
<path d="M72.0705 124.017L28.8737 110.651C27.7914 110.315 26.6135 110.661 25.8819 111.526L0.671438 141.371C-0.847267 143.169 0.370549 145.926 2.72062 146.016L55.0225 148.005C55.8753 148.038 56.6981 147.683 57.2585 147.04L73.3653 128.57C74.7072 127.031 74.0228 124.62 72.072 124.017H72.0705Z" fill="url(#paint2_linear_296_714)"/>
<path d="M71.6916 130.408L1.97949 146.02L54.4782 147.986C55.6746 148.032 56.8268 147.532 57.6111 146.628L71.6916 130.409V130.408Z" fill="url(#paint3_linear_296_714)"/>
<path d="M52.1963 102.571L46.7945 57.6755C46.6591 56.5504 45.8648 55.6149 44.7753 55.3012L7.24548 44.445C4.98525 43.7919 2.96316 46.0264 3.84016 48.2097L23.3423 96.7811C23.6603 97.574 24.3191 98.1786 25.1348 98.4296L48.5642 105.61C50.5164 106.207 52.4387 104.6 52.1949 102.572L52.1963 102.571Z" fill="#7B15F8"/>
<path d="M52.1963 102.571L46.7945 57.6755C46.6591 56.5504 45.8648 55.6149 44.7753 55.3012L7.24548 44.445C4.98525 43.7919 2.96316 46.0264 3.84016 48.2097L23.3423 96.7811C23.6603 97.574 24.3191 98.1786 25.1348 98.4296L48.5642 105.61C50.5164 106.207 52.4387 104.6 52.1949 102.572L52.1963 102.571Z" fill="url(#paint4_linear_296_714)"/>
<path d="M46.2087 104.831L3.53809 47.5366L23.1415 96.2777C23.5878 97.3886 24.5148 98.2371 25.6598 98.585L46.2087 104.831Z" fill="url(#paint5_linear_296_714)"/>
<path d="M67.7214 69.1792L104.932 43.4867C105.864 42.8421 106.322 41.7042 106.094 40.5933L98.2181 2.32621C97.7433 0.0217742 94.8242 -0.725457 93.3012 1.06704L59.4049 40.9484C58.853 41.5986 58.6234 42.4642 58.7831 43.3027L63.3435 67.3795C63.7243 69.3859 66.0415 70.3385 67.7214 69.1777V69.1792Z" fill="#7B15F8"/>
<path d="M67.7922 69.1079L105.003 43.4154C105.935 42.7709 106.393 41.6329 106.165 40.522L98.2875 2.25639C97.8126 -0.04805 94.8936 -0.795281 93.3706 0.997218L59.4742 40.8785C58.9223 41.5288 58.6928 42.3944 58.8525 43.2329L63.4129 67.3097C63.7936 69.3161 66.1109 70.2687 67.7907 69.1079H67.7922Z" fill="url(#paint6_linear_296_714)"/>
<path d="M62.9308 64.9297L93.7526 0.482483L59.7536 40.5335C58.9793 41.4462 58.6599 42.6611 58.8852 43.8362L62.9293 64.9297H62.9308Z" fill="url(#paint7_linear_296_714)"/>
<path d="M101.853 64.2567L144.393 79.5892C145.459 79.9742 146.651 79.6833 147.421 78.8519L173.974 50.1933C175.572 48.4678 174.483 45.6572 172.139 45.4604L119.982 41.0754C119.132 41.0041 118.295 41.3207 117.705 41.9381L100.769 59.6492C99.3576 61.1251 99.9323 63.5651 101.853 64.2567Z" fill="#7B15F8"/>
<path d="M101.853 64.2567L144.393 79.5892C145.459 79.9742 146.651 79.6833 147.421 78.8519L173.974 50.1933C175.572 48.4678 174.483 45.6572 172.139 45.4604L119.982 41.0754C119.132 41.0041 118.295 41.3207 117.705 41.9381L100.769 59.6492C99.3576 61.1251 99.9323 63.5651 101.853 64.2567Z" fill="url(#paint8_linear_296_714)"/>
<path d="M102.523 57.8895L172.877 45.4903L120.524 41.1196C119.332 41.0197 118.157 41.4661 117.333 42.3331L102.525 57.8895H102.523Z" fill="url(#paint9_linear_296_714)"/>
<path d="M112.333 96.245L132.665 136.634C133.174 137.646 134.239 138.255 135.37 138.183L174.356 135.643C176.703 135.49 177.845 132.701 176.279 130.946L141.436 91.8885C140.869 91.2525 140.043 90.906 139.19 90.9487L114.714 92.1566C112.675 92.2564 111.413 94.4225 112.331 96.2464L112.333 96.245Z" fill="#7B15F8"/>
<path d="M112.333 96.245L132.665 136.634C133.174 137.646 134.239 138.255 135.37 138.183L174.356 135.643C176.703 135.49 177.845 132.701 176.279 130.946L141.436 91.8885C140.869 91.2525 140.043 90.906 139.19 90.9487L114.714 92.1566C112.675 92.2564 111.413 94.4225 112.331 96.2464L112.333 96.245Z" fill="url(#paint10_linear_296_714)"/>
<path d="M117.199 92.0866L176.797 131.476L141.801 92.2948C141.004 91.4022 139.844 90.9187 138.649 90.9801L117.201 92.0866H117.199Z" fill="url(#paint11_linear_296_714)"/>
<path d="M91.0511 98.5765C87.6843 102.055 84.018 104.547 80.8422 105.786C77.5909 107.056 75.1867 106.902 73.9489 105.704C72.7111 104.506 72.4787 102.107 73.6423 98.816C74.7774 95.6018 77.1503 91.8571 80.5171 88.379C83.8839 84.901 87.5502 82.4083 90.7259 81.1691C93.9772 79.9 96.3815 80.054 97.6193 81.2518C98.8571 82.4497 99.0881 84.8482 97.9259 88.1395C96.7908 91.3523 94.4179 95.0984 91.0511 98.5765Z" stroke="white" stroke-width="0.472034"/>
<path d="M91.0511 98.5765C87.6843 102.055 84.018 104.547 80.8422 105.786C77.5909 107.056 75.1867 106.902 73.9489 105.704C72.7111 104.506 72.4787 102.107 73.6423 98.816C74.7774 95.6018 77.1503 91.8571 80.5171 88.379C83.8839 84.901 87.5502 82.4083 90.7259 81.1691C93.9772 79.9 96.3815 80.054 97.6193 81.2518C98.8571 82.4497 99.0881 84.8482 97.9259 88.1395C96.7908 91.3523 94.4179 95.0984 91.0511 98.5765Z" stroke="white" stroke-width="0.472034"/>
<path d="M91.0511 98.5765C87.6843 102.055 84.018 104.547 80.8422 105.786C77.5909 107.056 75.1867 106.902 73.9489 105.704C72.7111 104.506 72.4787 102.107 73.6423 98.816C74.7774 95.6018 77.1503 91.8571 80.5171 88.379C83.8839 84.901 87.5502 82.4083 90.7259 81.1691C93.9772 79.9 96.3815 80.054 97.6193 81.2518C98.8571 82.4497 99.0881 84.8482 97.9259 88.1395C96.7908 91.3523 94.4179 95.0984 91.0511 98.5765Z" stroke="white" stroke-width="0.472034"/>
<path d="M80.7812 98.8302C77.249 95.519 74.6979 91.8941 73.4073 88.7397C72.0868 85.5084 72.2009 83.1027 73.3802 81.8449C74.5581 80.5886 76.9524 80.3177 80.2622 81.4271C83.4935 82.5109 87.2767 84.8225 90.809 88.1337C94.3412 91.4449 96.8923 95.0698 98.1829 98.2256C99.5034 101.457 99.3893 103.863 98.21 105.119C97.0321 106.375 94.6378 106.646 91.328 105.537C88.0967 104.453 84.3135 102.141 80.7812 98.8302Z" stroke="white" stroke-width="0.472034"/>
<path d="M80.7812 98.8302C77.249 95.519 74.6979 91.8941 73.4073 88.7397C72.0868 85.5084 72.2009 83.1027 73.3802 81.8449C74.5581 80.5886 76.9524 80.3177 80.2622 81.4271C83.4935 82.5109 87.2767 84.8225 90.809 88.1337C94.3412 91.4449 96.8923 95.0698 98.1829 98.2256C99.5034 101.457 99.3893 103.863 98.21 105.119C97.0321 106.375 94.6378 106.646 91.328 105.537C88.0967 104.453 84.3135 102.141 80.7812 98.8302Z" stroke="white" stroke-width="0.472034"/>
<path d="M80.7812 98.8302C77.249 95.519 74.6979 91.8941 73.4073 88.7397C72.0868 85.5084 72.2009 83.1027 73.3802 81.8449C74.5581 80.5886 76.9524 80.3177 80.2622 81.4271C83.4935 82.5109 87.2767 84.8225 90.809 88.1337C94.3412 91.4449 96.8923 95.0698 98.1829 98.2256C99.5034 101.457 99.3893 103.863 98.21 105.119C97.0321 106.375 94.6378 106.646 91.328 105.537C88.0967 104.453 84.3135 102.141 80.7812 98.8302Z" stroke="white" stroke-width="0.472034"/>
<path d="M80.7812 98.8302C77.249 95.519 74.6979 91.8941 73.4073 88.7397C72.0868 85.5084 72.2009 83.1027 73.3802 81.8449C74.5581 80.5886 76.9524 80.3177 80.2622 81.4271C83.4935 82.5109 87.2767 84.8225 90.809 88.1337C94.3412 91.4449 96.8923 95.0698 98.1829 98.2256C99.5034 101.457 99.3893 103.863 98.21 105.119C97.0321 106.375 94.6378 106.646 91.328 105.537C88.0967 104.453 84.3135 102.141 80.7812 98.8302Z" stroke="white" stroke-width="0.472034"/>
<path d="M80.7812 98.8302C77.249 95.519 74.6979 91.8941 73.4073 88.7397C72.0868 85.5084 72.2009 83.1027 73.3802 81.8449C74.5581 80.5886 76.9524 80.3177 80.2622 81.4271C83.4935 82.5109 87.2767 84.8225 90.809 88.1337C94.3412 91.4449 96.8923 95.0698 98.1829 98.2256C99.5034 101.457 99.3893 103.863 98.21 105.119C97.0321 106.375 94.6378 106.646 91.328 105.537C88.0967 104.453 84.3135 102.141 80.7812 98.8302Z" stroke="white" stroke-width="0.472034"/>
<path d="M80.7812 98.8302C77.249 95.519 74.6979 91.8941 73.4073 88.7397C72.0868 85.5084 72.2009 83.1027 73.3802 81.8449C74.5581 80.5886 76.9524 80.3177 80.2622 81.4271C83.4935 82.5109 87.2767 84.8225 90.809 88.1337C94.3412 91.4449 96.8923 95.0698 98.1829 98.2256C99.5034 101.457 99.3893 103.863 98.21 105.119C97.0321 106.375 94.6378 106.646 91.328 105.537C88.0967 104.453 84.3135 102.141 80.7812 98.8302Z" stroke="white" stroke-width="0.472034"/>
<path d="M85.8365 97.0991C87.7558 97.0991 89.3117 95.5432 89.3117 93.6239C89.3117 91.7046 87.7558 90.1487 85.8365 90.1487C83.9172 90.1487 82.3613 91.7046 82.3613 93.6239C82.3613 95.5432 83.9172 97.0991 85.8365 97.0991Z" fill="white"/>
<defs>
<linearGradient id="paint0_linear_296_714" x1="103.124" y1="150.415" x2="86.1812" y2="149.003" gradientUnits="userSpaceOnUse">
<stop stop-opacity="0.45"/>
<stop offset="1" stop-opacity="0"/>
</linearGradient>
<linearGradient id="paint1_linear_296_714" x1="104.356" y1="116.373" x2="104.356" y2="186.403" gradientUnits="userSpaceOnUse">
<stop stop-color="#7B15F8"/>
<stop offset="1" stop-color="#46326F"/>
</linearGradient>
<linearGradient id="paint2_linear_296_714" x1="39.1481" y1="141.008" x2="33.5411" y2="124.958" gradientUnits="userSpaceOnUse">
<stop stop-opacity="0.45"/>
<stop offset="1" stop-opacity="0"/>
</linearGradient>
<linearGradient id="paint3_linear_296_714" x1="70.7433" y1="128.278" x2="6.77802" y2="156.785" gradientUnits="userSpaceOnUse">
<stop stop-color="#7B15F8"/>
<stop offset="1" stop-color="#46326F"/>
</linearGradient>
<linearGradient id="paint4_linear_296_714" x1="23.261" y1="79.4322" x2="35.6317" y2="67.7703" gradientUnits="userSpaceOnUse">
<stop stop-opacity="0.45"/>
<stop offset="1" stop-opacity="0"/>
</linearGradient>
<linearGradient id="paint5_linear_296_714" x1="47.7673" y1="103.095" x2="-4.33637" y2="56.3065" gradientUnits="userSpaceOnUse">
<stop stop-color="#7B15F8"/>
<stop offset="1" stop-color="#46326F"/>
</linearGradient>
<linearGradient id="paint6_linear_296_714" x1="73.4549" y1="32.2669" x2="89.536" y2="37.7812" gradientUnits="userSpaceOnUse">
<stop stop-opacity="0.45"/>
<stop offset="1" stop-opacity="0"/>
</linearGradient>
<linearGradient id="paint7_linear_296_714" x1="58.8153" y1="32.7061" x2="93.7526" y2="32.7061" gradientUnits="userSpaceOnUse">
<stop stop-color="#7B15F8"/>
<stop offset="1" stop-color="#46326F"/>
</linearGradient>
<linearGradient id="paint8_linear_296_714" x1="135.523" y1="48.793" x2="140.388" y2="65.0838" gradientUnits="userSpaceOnUse">
<stop stop-opacity="0.45"/>
<stop offset="1" stop-opacity="0"/>
</linearGradient>
<linearGradient id="paint9_linear_296_714" x1="103.375" y1="60.0613" x2="168.579" y2="34.5157" gradientUnits="userSpaceOnUse">
<stop stop-color="#7B15F8"/>
<stop offset="1" stop-color="#46326F"/>
</linearGradient>
<linearGradient id="paint10_linear_296_714" x1="147.41" y1="108.178" x2="139.736" y2="123.349" gradientUnits="userSpaceOnUse">
<stop stop-opacity="0.45"/>
<stop offset="1" stop-opacity="0"/>
</linearGradient>
<linearGradient id="paint11_linear_296_714" x1="116.324" y1="94.2485" x2="181.224" y2="120.553" gradientUnits="userSpaceOnUse">
<stop stop-color="#7B15F8"/>
<stop offset="1" stop-color="#46326F"/>
</linearGradient>
</defs>
</svg>
