<svg width="17" height="20" viewBox="0 0 17 20" fill="none" xmlns="http://www.w3.org/2000/svg">
<path d="M8.082 0.376795C8.20561 0.293821 8.35112 0.249512 8.5 0.249512C8.64888 0.249512 8.79439 0.293821 8.918 0.376795L9.879 1.0228C11.4432 2.07284 13.2424 2.72034 15.117 2.9078C15.4273 2.93923 15.715 3.08466 15.9242 3.31593C16.1335 3.5472 16.2496 3.84788 16.25 4.1598V8.99979C16.25 12.0038 14.321 14.6878 12.541 16.5438C11.4617 17.6634 10.2761 18.6755 9.001 19.5658C8.97367 19.5858 8.95233 19.6005 8.937 19.6098L8.92 19.6218L8.915 19.6248L8.913 19.6258H8.086L8.08 19.6218L8.063 19.6098L7.998 19.5658L7.764 19.4028C6.57768 18.5523 5.47143 17.5953 4.459 16.5438C2.679 14.6878 0.75 12.0038 0.75 8.99979V4.1598C0.75 3.51279 1.24 2.9718 1.883 2.9078C3.75758 2.72034 5.55684 2.07284 7.121 1.0228L8.082 0.376795ZM8.088 19.6268C8.21035 19.7072 8.35358 19.7501 8.5 19.7501C8.64642 19.7501 8.78965 19.7072 8.912 19.6268H8.088ZM7.75 17.5128V2.4028C6.09108 3.4712 4.20978 4.14607 2.25 4.3758V8.99979C2.25 11.3958 3.821 13.7118 5.541 15.5058C6.23314 16.2216 6.97102 16.8916 7.75 17.5118" fill="white"/>
</svg>
