<svg width="60" height="60" viewBox="0 0 60 60" fill="none" xmlns="http://www.w3.org/2000/svg">
<g clip-path="url(#clip0_474_480)">
<g clip-path="url(#clip1_474_480)">
<g clip-path="url(#clip2_474_480)">
<path d="M59.5 30C59.5 13.7076 46.2924 0.5 30 0.5C13.7076 0.5 0.5 13.7076 0.5 30C0.5 46.2924 13.7076 59.5 30 59.5C46.2924 59.5 59.5 46.2924 59.5 30Z" fill="url(#paint0_linear_474_480)" stroke="url(#paint1_linear_474_480)"/>
<g opacity="0.5">
<path d="M43.3333 36.6668H16.6666C16.313 36.6668 15.9738 36.8073 15.7238 37.0574C15.4737 37.3074 15.3333 37.6465 15.3333 38.0002C15.3333 38.3538 15.4737 38.6929 15.7238 38.943C15.9738 39.193 16.313 39.3335 16.6666 39.3335H43.3333C43.6869 39.3335 44.026 39.193 44.2761 38.943C44.5261 38.6929 44.6666 38.3538 44.6666 38.0002C44.6666 37.6465 44.5261 37.3074 44.2761 37.0574C44.026 36.8073 43.6869 36.6668 43.3333 36.6668ZM43.3333 42.0002H16.6666C16.313 42.0002 15.9738 42.1406 15.7238 42.3907C15.4737 42.6407 15.3333 42.9799 15.3333 43.3335C15.3333 43.6871 15.4737 44.0263 15.7238 44.2763C15.9738 44.5264 16.313 44.6668 16.6666 44.6668H43.3333C43.6869 44.6668 44.026 44.5264 44.2761 44.2763C44.5261 44.0263 44.6666 43.6871 44.6666 43.3335C44.6666 42.9799 44.5261 42.6407 44.2761 42.3907C44.026 42.1406 43.6869 42.0002 43.3333 42.0002ZM21.9999 23.3335C21.7362 23.3335 21.4784 23.4117 21.2592 23.5582C21.0399 23.7047 20.869 23.913 20.7681 24.1566C20.6672 24.4002 20.6408 24.6683 20.6922 24.927C20.7437 25.1856 20.8706 25.4232 21.0571 25.6096C21.2436 25.7961 21.4812 25.9231 21.7398 25.9745C21.9984 26.026 22.2665 25.9996 22.5102 25.8987C22.7538 25.7978 22.962 25.6269 23.1085 25.4076C23.2551 25.1883 23.3333 24.9305 23.3333 24.6668C23.3333 24.3132 23.1928 23.9741 22.9427 23.724C22.6927 23.474 22.3535 23.3335 21.9999 23.3335ZM40.6666 15.3335H19.3333C18.2724 15.3335 17.255 15.7549 16.5048 16.5051C15.7547 17.2552 15.3333 18.2726 15.3333 19.3335V30.0002C15.3333 31.061 15.7547 32.0784 16.5048 32.8286C17.255 33.5787 18.2724 34.0002 19.3333 34.0002H40.6666C41.7275 34.0002 42.7449 33.5787 43.495 32.8286C44.2452 32.0784 44.6666 31.061 44.6666 30.0002V19.3335C44.6666 18.2726 44.2452 17.2552 43.495 16.5051C42.7449 15.7549 41.7275 15.3335 40.6666 15.3335ZM41.9999 30.0002C41.9999 30.3538 41.8594 30.6929 41.6094 30.943C41.3593 31.193 41.0202 31.3335 40.6666 31.3335H19.3333C18.9796 31.3335 18.6405 31.193 18.3904 30.943C18.1404 30.6929 17.9999 30.3538 17.9999 30.0002V19.3335C17.9999 18.9799 18.1404 18.6407 18.3904 18.3907C18.6405 18.1406 18.9796 18.0002 19.3333 18.0002H40.6666C41.0202 18.0002 41.3593 18.1406 41.6094 18.3907C41.8594 18.6407 41.9999 18.9799 41.9999 19.3335V30.0002ZM29.9999 20.6668C29.2088 20.6668 28.4354 20.9014 27.7776 21.341C27.1198 21.7805 26.6072 22.4052 26.3044 23.1361C26.0016 23.867 25.9224 24.6713 26.0768 25.4472C26.2311 26.2231 26.6121 26.9358 27.1715 27.4953C27.7309 28.0547 28.4436 28.4356 29.2196 28.59C29.9955 28.7443 30.7997 28.6651 31.5307 28.3623C32.2616 28.0596 32.8863 27.5469 33.3258 26.8891C33.7653 26.2313 33.9999 25.458 33.9999 24.6668C33.9999 23.606 33.5785 22.5885 32.8283 21.8384C32.0782 21.0883 31.0608 20.6668 29.9999 20.6668ZM29.9999 26.0002C29.7362 26.0002 29.4784 25.922 29.2592 25.7755C29.0399 25.6289 28.869 25.4207 28.7681 25.1771C28.6672 24.9334 28.6408 24.6654 28.6922 24.4067C28.7437 24.1481 28.8706 23.9105 29.0571 23.724C29.2436 23.5376 29.4812 23.4106 29.7398 23.3591C29.9984 23.3077 30.2665 23.3341 30.5102 23.435C30.7538 23.5359 30.962 23.7068 31.1085 23.9261C31.2551 24.1453 31.3333 24.4031 31.3333 24.6668C31.3333 25.0205 31.1928 25.3596 30.9427 25.6096C30.6927 25.8597 30.3535 26.0002 29.9999 26.0002ZM37.9999 23.3335C37.7362 23.3335 37.4784 23.4117 37.2592 23.5582C37.0399 23.7047 36.869 23.913 36.7681 24.1566C36.6672 24.4002 36.6408 24.6683 36.6922 24.927C36.7437 25.1856 36.8706 25.4232 37.0571 25.6096C37.2436 25.7961 37.4812 25.9231 37.7398 25.9745C37.9984 26.026 38.2665 25.9996 38.5102 25.8987C38.7538 25.7978 38.962 25.6269 39.1085 25.4076C39.2551 25.1883 39.3333 24.9305 39.3333 24.6668C39.3333 24.3132 39.1928 23.9741 38.9427 23.724C38.6927 23.474 38.3535 23.3335 37.9999 23.3335Z" fill="white"/>
</g>
</g>
</g>
</g>
<defs>
<linearGradient id="paint0_linear_474_480" x1="-4.2" y1="-6.3" x2="64.2" y2="63.3" gradientUnits="userSpaceOnUse">
<stop stop-color="#171720"/>
<stop offset="1" stop-color="#242341"/>
</linearGradient>
<linearGradient id="paint1_linear_474_480" x1="30" y1="-1.7995e-08" x2="30" y2="60" gradientUnits="userSpaceOnUse">
<stop stop-color="#7064E9" stop-opacity="0.4"/>
<stop offset="1" stop-color="#7064E9" stop-opacity="0"/>
</linearGradient>
<clipPath id="clip0_474_480">
<rect width="60" height="60" fill="white"/>
</clipPath>
<clipPath id="clip1_474_480">
<rect width="60" height="60" fill="white"/>
</clipPath>
<clipPath id="clip2_474_480">
<rect width="60" height="60" fill="white"/>
</clipPath>
</defs>
</svg>
