<svg width="32" height="32" viewBox="0 0 32 32" fill="none" xmlns="http://www.w3.org/2000/svg">
<g opacity="0.5">
<path d="M29.3333 22.6668H2.66659C2.31296 22.6668 1.97382 22.8073 1.72378 23.0574C1.47373 23.3074 1.33325 23.6465 1.33325 24.0002C1.33325 24.3538 1.47373 24.6929 1.72378 24.943C1.97382 25.193 2.31296 25.3335 2.66659 25.3335H29.3333C29.6869 25.3335 30.026 25.193 30.2761 24.943C30.5261 24.6929 30.6666 24.3538 30.6666 24.0002C30.6666 23.6465 30.5261 23.3074 30.2761 23.0574C30.026 22.8073 29.6869 22.6668 29.3333 22.6668ZM29.3333 28.0002H2.66659C2.31296 28.0002 1.97382 28.1406 1.72378 28.3907C1.47373 28.6407 1.33325 28.9799 1.33325 29.3335C1.33325 29.6871 1.47373 30.0263 1.72378 30.2763C1.97382 30.5264 2.31296 30.6668 2.66659 30.6668H29.3333C29.6869 30.6668 30.026 30.5264 30.2761 30.2763C30.5261 30.0263 30.6666 29.6871 30.6666 29.3335C30.6666 28.9799 30.5261 28.6407 30.2761 28.3907C30.026 28.1406 29.6869 28.0002 29.3333 28.0002ZM7.99992 9.3335C7.73621 9.3335 7.47842 9.4117 7.25916 9.5582C7.03989 9.70471 6.869 9.91295 6.76808 10.1566C6.66716 10.4002 6.64076 10.6683 6.6922 10.927C6.74365 11.1856 6.87064 11.4232 7.05711 11.6096C7.24358 11.7961 7.48116 11.9231 7.7398 11.9745C7.99844 12.026 8.26653 11.9996 8.51016 11.8987C8.7538 11.7978 8.96204 11.6269 9.10854 11.4076C9.25505 11.1883 9.33325 10.9305 9.33325 10.6668C9.33325 10.3132 9.19278 9.97407 8.94273 9.72402C8.69268 9.47397 8.35354 9.3335 7.99992 9.3335ZM26.6666 1.3335H5.33325C4.27239 1.3335 3.25497 1.75492 2.50482 2.50507C1.75468 3.25521 1.33325 4.27263 1.33325 5.3335V16.0002C1.33325 17.061 1.75468 18.0784 2.50482 18.8286C3.25497 19.5787 4.27239 20.0002 5.33325 20.0002H26.6666C27.7275 20.0002 28.7449 19.5787 29.495 18.8286C30.2452 18.0784 30.6666 17.061 30.6666 16.0002V5.3335C30.6666 4.27263 30.2452 3.25521 29.495 2.50507C28.7449 1.75492 27.7275 1.3335 26.6666 1.3335ZM27.9999 16.0002C27.9999 16.3538 27.8594 16.6929 27.6094 16.943C27.3593 17.193 27.0202 17.3335 26.6666 17.3335H5.33325C4.97963 17.3335 4.64049 17.193 4.39044 16.943C4.14039 16.6929 3.99992 16.3538 3.99992 16.0002V5.3335C3.99992 4.97987 4.14039 4.64074 4.39044 4.39069C4.64049 4.14064 4.97963 4.00016 5.33325 4.00016H26.6666C27.0202 4.00016 27.3593 4.14064 27.6094 4.39069C27.8594 4.64074 27.9999 4.97987 27.9999 5.3335V16.0002ZM15.9999 6.66683C15.2088 6.66683 14.4354 6.90143 13.7776 7.34095C13.1198 7.78048 12.6072 8.40519 12.3044 9.1361C12.0016 9.867 11.9224 10.6713 12.0768 11.4472C12.2311 12.2231 12.6121 12.9358 13.1715 13.4953C13.7309 14.0547 14.4436 14.4356 15.2196 14.59C15.9955 14.7443 16.7997 14.6651 17.5307 14.3623C18.2616 14.0596 18.8863 13.5469 19.3258 12.8891C19.7653 12.2313 19.9999 11.458 19.9999 10.6668C19.9999 9.60596 19.5785 8.58855 18.8283 7.8384C18.0782 7.08826 17.0608 6.66683 15.9999 6.66683ZM15.9999 12.0002C15.7362 12.0002 15.4784 11.922 15.2592 11.7755C15.0399 11.6289 14.869 11.4207 14.7681 11.1771C14.6672 10.9334 14.6408 10.6654 14.6922 10.4067C14.7437 10.1481 14.8706 9.91049 15.0571 9.72402C15.2436 9.53755 15.4812 9.41056 15.7398 9.35912C15.9984 9.30767 16.2665 9.33407 16.5102 9.43499C16.7538 9.53591 16.962 9.7068 17.1085 9.92607C17.2551 10.1453 17.3333 10.4031 17.3333 10.6668C17.3333 11.0205 17.1928 11.3596 16.9427 11.6096C16.6927 11.8597 16.3535 12.0002 15.9999 12.0002ZM23.9999 9.3335C23.7362 9.3335 23.4784 9.4117 23.2592 9.5582C23.0399 9.70471 22.869 9.91295 22.7681 10.1566C22.6672 10.4002 22.6408 10.6683 22.6922 10.927C22.7437 11.1856 22.8706 11.4232 23.0571 11.6096C23.2436 11.7961 23.4812 11.9231 23.7398 11.9745C23.9984 12.026 24.2665 11.9996 24.5102 11.8987C24.7538 11.7978 24.962 11.6269 25.1085 11.4076C25.2551 11.1883 25.3333 10.9305 25.3333 10.6668C25.3333 10.3132 25.1928 9.97407 24.9427 9.72402C24.6927 9.47397 24.3535 9.3335 23.9999 9.3335Z" fill="white"/>
</g>
</svg>
