<svg width="167" height="177" viewBox="0 0 167 177" fill="none" xmlns="http://www.w3.org/2000/svg">
<path d="M95.4565 106.784L67.4077 138.807C66.7042 139.609 66.5498 140.755 67.0143 141.714L83.0169 174.831C83.9808 176.826 86.8175 176.836 87.7962 174.849L109.551 130.636C109.906 129.915 109.915 129.074 109.577 128.345L99.8679 107.416C99.0584 105.672 96.7224 105.338 95.4565 106.784Z" fill="#7B15F8"/>
<path d="M95.4565 106.784L67.4077 138.807C66.7042 139.609 66.5498 140.755 67.0143 141.714L83.0169 174.831C83.9808 176.826 86.8175 176.836 87.7962 174.849L109.551 130.636C109.906 129.915 109.915 129.074 109.577 128.345L99.8679 107.416C99.0584 105.672 96.7224 105.338 95.4565 106.784Z" fill="url(#paint0_linear_296_684)"/>
<path d="M100.808 109.558L87.5156 175.485L109.326 131.095C109.823 130.084 109.835 128.902 109.358 127.88L100.808 109.558Z" fill="url(#paint1_linear_296_684)"/>
<path d="M68.2159 116.754L27.5489 104.17C26.53 103.855 25.4211 104.18 24.7324 104.995L0.998326 133.092C-0.431435 134.785 0.715059 137.38 2.9275 137.464L52.1663 139.337C52.9691 139.368 53.7437 139.034 54.2713 138.428L69.4349 121.04C70.6981 119.592 70.0537 117.322 68.2172 116.754H68.2159Z" fill="#7B15F8"/>
<path d="M68.2159 116.754L27.5489 104.17C26.53 103.855 25.4211 104.18 24.7324 104.995L0.998326 133.092C-0.431435 134.785 0.715059 137.38 2.9275 137.464L52.1663 139.337C52.9691 139.368 53.7437 139.034 54.2713 138.428L69.4349 121.04C70.6981 119.592 70.0537 117.322 68.2172 116.754H68.2159Z" fill="url(#paint2_linear_296_684)"/>
<path d="M67.8589 122.771L2.22949 137.468L51.6536 139.319C52.7799 139.362 53.8647 138.891 54.603 138.04L67.8589 122.772V122.771Z" fill="url(#paint3_linear_296_684)"/>
<path d="M49.5053 96.5637L44.42 54.2978C44.2924 53.2386 43.5446 52.3579 42.519 52.0625L7.18711 41.8421C5.05925 41.2272 3.15559 43.3309 3.98122 45.3863L22.3412 91.1131C22.6406 91.8595 23.2608 92.4288 24.0287 92.665L46.086 99.4245C47.9239 99.987 49.7336 98.474 49.504 96.565L49.5053 96.5637Z" fill="#7B15F8"/>
<path d="M49.5053 96.5637L44.42 54.2978C44.2924 53.2386 43.5446 52.3579 42.519 52.0625L7.18711 41.8421C5.05925 41.2272 3.15559 43.3309 3.98122 45.3863L22.3412 91.1131C22.6406 91.8595 23.2608 92.4288 24.0287 92.665L46.086 99.4245C47.9239 99.987 49.7336 98.474 49.504 96.565L49.5053 96.5637Z" fill="url(#paint4_linear_296_684)"/>
<path d="M43.8688 98.6916L3.69727 44.7527L22.1526 90.6393C22.5728 91.6851 23.4454 92.4839 24.5234 92.8114L43.8688 98.6916Z" fill="url(#paint5_linear_296_684)"/>
<path d="M64.1218 65.1278L99.1529 40.94C100.031 40.3332 100.462 39.2618 100.247 38.216L92.8324 2.1901C92.3854 0.0206246 89.6373 -0.682844 88.2035 1.00468L56.2923 38.5503C55.7728 39.1625 55.5566 39.9774 55.707 40.7668L60.0003 63.4335C60.3587 65.3224 62.5403 66.2192 64.1218 65.1264V65.1278Z" fill="#7B15F8"/>
<path d="M64.1885 65.0605L99.2197 40.8727C100.098 40.2659 100.529 39.1946 100.314 38.1488L92.8979 2.12418C92.4508 -0.0452934 89.7027 -0.748762 88.2689 0.938758L56.3577 38.4844C55.8382 39.0966 55.6221 39.9115 55.7724 40.7009L60.0657 63.3676C60.4242 65.2565 62.6057 66.1533 64.1872 65.0605H64.1885Z" fill="url(#paint6_linear_296_684)"/>
<path d="M59.6116 61.1272L88.6283 0.454346L56.6205 38.1597C55.8915 39.0189 55.5908 40.1628 55.8029 41.269L59.6102 61.1272H59.6116Z" fill="url(#paint7_linear_296_684)"/>
<path d="M96.2545 60.4934L136.303 74.9279C137.307 75.2904 138.429 75.0165 139.154 74.2338L164.151 47.2537C165.656 45.6292 164.631 42.9832 162.424 42.7979L113.322 38.6697C112.522 38.6026 111.733 38.9006 111.178 39.4819L95.2342 56.1558C93.9051 57.5452 94.4461 59.8423 96.2545 60.4934Z" fill="#7B15F8"/>
<path d="M96.2545 60.4934L136.303 74.9279C137.307 75.2904 138.429 75.0165 139.154 74.2338L164.151 47.2537C165.656 45.6292 164.631 42.9832 162.424 42.7979L113.322 38.6697C112.522 38.6026 111.733 38.9006 111.178 39.4819L95.2342 56.1558C93.9051 57.5452 94.4461 59.8423 96.2545 60.4934Z" fill="url(#paint8_linear_296_684)"/>
<path d="M96.8848 54.499L163.118 42.826L113.831 38.7112C112.709 38.6172 111.603 39.0374 110.827 39.8537L96.8861 54.499H96.8848Z" fill="url(#paint9_linear_296_684)"/>
<path d="M106.12 90.6083L125.262 128.632C125.741 129.585 126.744 130.158 127.808 130.09L164.511 127.699C166.721 127.555 167.796 124.929 166.322 123.277L133.519 86.5069C132.985 85.9082 132.208 85.582 131.405 85.6222L108.362 86.7593C106.442 86.8533 105.254 88.8926 106.119 90.6096L106.12 90.6083Z" fill="#7B15F8"/>
<path d="M106.12 90.6083L125.262 128.632C125.741 129.585 126.744 130.158 127.808 130.09L164.511 127.699C166.721 127.555 167.796 124.929 166.322 123.277L133.519 86.5069C132.985 85.9082 132.208 85.582 131.405 85.6222L108.362 86.7593C106.442 86.8533 105.254 88.8926 106.119 90.6096L106.12 90.6083Z" fill="url(#paint10_linear_296_684)"/>
<path d="M110.702 86.6934L166.809 123.776L133.863 86.8894C133.112 86.049 132.021 85.5939 130.896 85.6516L110.703 86.6934H110.702Z" fill="url(#paint11_linear_296_684)"/>
<path d="M86.0847 92.8032C82.9151 96.0775 79.4635 98.4242 76.4738 99.5909C73.4129 100.786 71.1495 100.641 69.9842 99.513C68.8189 98.3853 68.6 96.1272 69.6955 93.0287C70.7642 90.0027 72.9981 86.4773 76.1677 83.203C79.3374 79.9286 82.7889 77.5819 85.7787 76.4153C88.8395 75.2205 91.103 75.3655 92.2683 76.4932C93.4336 77.6209 93.6511 79.879 92.5569 82.9774C91.4883 86.0021 89.2544 89.5288 86.0847 92.8032Z" stroke="white" stroke-width="0.472034"/>
<path d="M86.0847 92.8032C82.9151 96.0775 79.4635 98.4242 76.4738 99.5909C73.4129 100.786 71.1495 100.641 69.9842 99.513C68.8189 98.3853 68.6 96.1272 69.6955 93.0287C70.7642 90.0027 72.9981 86.4773 76.1677 83.203C79.3374 79.9286 82.7889 77.5819 85.7787 76.4153C88.8395 75.2205 91.103 75.3655 92.2683 76.4932C93.4336 77.6209 93.6511 79.879 92.5569 82.9774C91.4883 86.0021 89.2544 89.5288 86.0847 92.8032Z" stroke="white" stroke-width="0.472034"/>
<path d="M86.0847 92.8032C82.9151 96.0775 79.4635 98.4242 76.4738 99.5909C73.4129 100.786 71.1495 100.641 69.9842 99.513C68.8189 98.3853 68.6 96.1272 69.6955 93.0287C70.7642 90.0027 72.9981 86.4773 76.1677 83.203C79.3374 79.9286 82.7889 77.5819 85.7787 76.4153C88.8395 75.2205 91.103 75.3655 92.2683 76.4932C93.4336 77.6209 93.6511 79.879 92.5569 82.9774C91.4883 86.0021 89.2544 89.5288 86.0847 92.8032Z" stroke="white" stroke-width="0.472034"/>
<path d="M76.4157 93.0421C73.0904 89.9248 70.6886 86.5122 69.4737 83.5426C68.2305 80.5005 68.3379 78.2357 69.4482 77.0516C70.5571 75.8689 72.8111 75.6138 75.9271 76.6583C78.9692 77.6786 82.5308 79.8548 85.8562 82.972C89.1815 86.0893 91.5833 89.502 92.7982 92.4729C94.0414 95.515 93.934 97.7798 92.8237 98.9625C91.7148 100.145 89.4608 100.4 86.3448 99.3559C83.3027 98.3356 79.7411 96.1594 76.4157 93.0421Z" stroke="white" stroke-width="0.472034"/>
<path d="M76.4157 93.0421C73.0904 89.9248 70.6886 86.5122 69.4737 83.5426C68.2305 80.5005 68.3379 78.2357 69.4482 77.0516C70.5571 75.8689 72.8111 75.6138 75.9271 76.6583C78.9692 77.6786 82.5308 79.8548 85.8562 82.972C89.1815 86.0893 91.5833 89.502 92.7982 92.4729C94.0414 95.515 93.934 97.7798 92.8237 98.9625C91.7148 100.145 89.4608 100.4 86.3448 99.3559C83.3027 98.3356 79.7411 96.1594 76.4157 93.0421Z" stroke="white" stroke-width="0.472034"/>
<path d="M76.4157 93.0421C73.0904 89.9248 70.6886 86.5122 69.4737 83.5426C68.2305 80.5005 68.3379 78.2357 69.4482 77.0516C70.5571 75.8689 72.8111 75.6138 75.9271 76.6583C78.9692 77.6786 82.5308 79.8548 85.8562 82.972C89.1815 86.0893 91.5833 89.502 92.7982 92.4729C94.0414 95.515 93.934 97.7798 92.8237 98.9625C91.7148 100.145 89.4608 100.4 86.3448 99.3559C83.3027 98.3356 79.7411 96.1594 76.4157 93.0421Z" stroke="white" stroke-width="0.472034"/>
<path d="M76.4157 93.0421C73.0904 89.9248 70.6886 86.5122 69.4737 83.5426C68.2305 80.5005 68.3379 78.2357 69.4482 77.0516C70.5571 75.8689 72.8111 75.6138 75.9271 76.6583C78.9692 77.6786 82.5308 79.8548 85.8562 82.972C89.1815 86.0893 91.5833 89.502 92.7982 92.4729C94.0414 95.515 93.934 97.7798 92.8237 98.9625C91.7148 100.145 89.4608 100.4 86.3448 99.3559C83.3027 98.3356 79.7411 96.1594 76.4157 93.0421Z" stroke="white" stroke-width="0.472034"/>
<path d="M76.4157 93.0421C73.0904 89.9248 70.6886 86.5122 69.4737 83.5426C68.2305 80.5005 68.3379 78.2357 69.4482 77.0516C70.5571 75.8689 72.8111 75.6138 75.9271 76.6583C78.9692 77.6786 82.5308 79.8548 85.8562 82.972C89.1815 86.0893 91.5833 89.502 92.7982 92.4729C94.0414 95.515 93.934 97.7798 92.8237 98.9625C91.7148 100.145 89.4608 100.4 86.3448 99.3559C83.3027 98.3356 79.7411 96.1594 76.4157 93.0421Z" stroke="white" stroke-width="0.472034"/>
<path d="M76.4157 93.0421C73.0904 89.9248 70.6886 86.5122 69.4737 83.5426C68.2305 80.5005 68.3379 78.2357 69.4482 77.0516C70.5571 75.8689 72.8111 75.6138 75.9271 76.6583C78.9692 77.6786 82.5308 79.8548 85.8562 82.972C89.1815 86.0893 91.5833 89.502 92.7982 92.4729C94.0414 95.515 93.934 97.7798 92.8237 98.9625C91.7148 100.145 89.4608 100.4 86.3448 99.3559C83.3027 98.3356 79.7411 96.1594 76.4157 93.0421Z" stroke="white" stroke-width="0.472034"/>
<path d="M81.175 91.4125C82.9819 91.4125 84.4467 89.9477 84.4467 88.1408C84.4467 86.3339 82.9819 84.8691 81.175 84.8691C79.3681 84.8691 77.9033 86.3339 77.9033 88.1408C77.9033 89.9477 79.3681 91.4125 81.175 91.4125Z" fill="white"/>
<defs>
<linearGradient id="paint0_linear_296_684" x1="97.4501" y1="141.606" x2="81.4999" y2="140.277" gradientUnits="userSpaceOnUse">
<stop stop-opacity="0.45"/>
<stop offset="1" stop-opacity="0"/>
</linearGradient>
<linearGradient id="paint1_linear_296_684" x1="98.6114" y1="109.558" x2="98.6114" y2="175.486" gradientUnits="userSpaceOnUse">
<stop stop-color="#7B15F8"/>
<stop offset="1" stop-color="#46326F"/>
</linearGradient>
<linearGradient id="paint2_linear_296_684" x1="37.2216" y1="132.75" x2="31.9429" y2="117.64" gradientUnits="userSpaceOnUse">
<stop stop-opacity="0.45"/>
<stop offset="1" stop-opacity="0"/>
</linearGradient>
<linearGradient id="paint3_linear_296_684" x1="66.9661" y1="120.765" x2="6.747" y2="147.603" gradientUnits="userSpaceOnUse">
<stop stop-color="#7B15F8"/>
<stop offset="1" stop-color="#46326F"/>
</linearGradient>
<linearGradient id="paint4_linear_296_684" x1="22.2647" y1="74.7803" x2="33.9109" y2="63.8013" gradientUnits="userSpaceOnUse">
<stop stop-opacity="0.45"/>
<stop offset="1" stop-opacity="0"/>
</linearGradient>
<linearGradient id="paint5_linear_296_684" x1="45.3362" y1="97.0578" x2="-3.71601" y2="53.0091" gradientUnits="userSpaceOnUse">
<stop stop-color="#7B15F8"/>
<stop offset="1" stop-color="#46326F"/>
</linearGradient>
<linearGradient id="paint6_linear_296_684" x1="69.5196" y1="30.3771" x2="84.6589" y2="35.5685" gradientUnits="userSpaceOnUse">
<stop stop-opacity="0.45"/>
<stop offset="1" stop-opacity="0"/>
</linearGradient>
<linearGradient id="paint7_linear_296_684" x1="55.7371" y1="30.7908" x2="88.6283" y2="30.7908" gradientUnits="userSpaceOnUse">
<stop stop-color="#7B15F8"/>
<stop offset="1" stop-color="#46326F"/>
</linearGradient>
<linearGradient id="paint8_linear_296_684" x1="127.952" y1="45.9353" x2="132.533" y2="61.272" gradientUnits="userSpaceOnUse">
<stop stop-opacity="0.45"/>
<stop offset="1" stop-opacity="0"/>
</linearGradient>
<linearGradient id="paint9_linear_296_684" x1="97.6862" y1="56.5436" x2="159.072" y2="32.4941" gradientUnits="userSpaceOnUse">
<stop stop-color="#7B15F8"/>
<stop offset="1" stop-color="#46326F"/>
</linearGradient>
<linearGradient id="paint10_linear_296_684" x1="139.143" y1="101.842" x2="131.919" y2="116.125" gradientUnits="userSpaceOnUse">
<stop stop-opacity="0.45"/>
<stop offset="1" stop-opacity="0"/>
</linearGradient>
<linearGradient id="paint11_linear_296_684" x1="109.878" y1="88.7286" x2="170.978" y2="113.492" gradientUnits="userSpaceOnUse">
<stop stop-color="#7B15F8"/>
<stop offset="1" stop-color="#46326F"/>
</linearGradient>
</defs>
</svg>
