<svg width="52" height="43" viewBox="0 0 52 43" fill="none" xmlns="http://www.w3.org/2000/svg">
<path d="M46.503 11.175C46.503 11.6758 46.503 12.0763 46.503 12.5771C46.503 26.4977 35.9874 42.4212 16.6588 42.4212C10.6499 42.4212 5.14179 40.7187 0.534981 37.7143C1.33617 37.8144 2.13735 37.9146 3.03868 37.9146C7.94594 37.9146 12.4526 36.212 16.0579 33.4079C11.4511 33.3077 7.54535 30.3033 6.24342 26.0971C6.94446 26.1972 7.54535 26.2974 8.24638 26.2974C9.14772 26.2974 10.1492 26.0971 10.9504 25.8968C6.14327 24.8953 2.53794 20.6891 2.53794 15.5815V15.4814C3.94002 16.2826 5.64253 16.6832 7.34505 16.7833C4.44076 14.8805 2.63809 11.6758 2.63809 8.07042C2.63809 6.06746 3.13883 4.2648 4.04016 2.76258C9.24786 9.07191 17.0594 13.2781 25.7723 13.7789C25.572 12.9777 25.4719 12.1765 25.4719 11.3753C25.4719 5.56672 30.1788 0.859763 35.9874 0.859763C38.9918 0.859763 41.6958 2.06154 43.6988 4.16465C46.0022 3.66391 48.3056 2.76258 50.3086 1.5608C49.5074 4.0645 47.905 6.06746 45.7018 7.36939C47.8049 7.16909 49.908 6.5682 51.7107 5.76702C50.3086 7.87013 48.5059 9.67279 46.503 11.175Z" fill="white"/>
</svg>
