<svg width="23" height="13" viewBox="0 0 23 13" fill="none" xmlns="http://www.w3.org/2000/svg">
<g clip-path="url(#clip0_18_34)">
<path d="M0 0.0449219H23V12.9546H0V0.0449219Z" fill="white"/>
<path d="M0 0.0449219H23V1.03799H0V0.0449219ZM0 2.03106H23V3.02413H0V2.03106ZM0 4.01712H23V5.01019H0V4.01712ZM0 6.00326H23V6.99632H0V6.00326ZM0 7.98931H23V8.98238H0V7.98931ZM0 9.97545H23V10.9685H0V9.97545ZM0 11.9615H23V12.9546H0V11.9615Z" fill="#B22234"/>
<path d="M0 0.0449219H9.2V6.99624H0V0.0449219Z" fill="#3C3B6E"/>
<path d="M0.432617 0.60919L0.651807 0.779007L0.568087 1.05381L0.7872 0.883988L1.00639 1.05381L0.922671 0.779007L1.14178 0.60919H0.87092L0.7872 0.334473L0.70348 0.60919H0.432617ZM1.9579 0.60919L2.17701 0.779007L2.09329 1.05381L2.31248 0.883988L2.53167 1.05381L2.44795 0.779007L2.66707 0.60919H2.3962L2.31248 0.334473L2.22876 0.60919H1.9579ZM3.48318 0.60919L3.7023 0.779007L3.61858 1.05381L3.83777 0.883988L4.05688 1.05381L3.97316 0.779007L4.19235 0.60919H3.92149L3.83777 0.334473L3.75405 0.60919H3.48318ZM5.00847 0.60919L5.22758 0.779007L5.14386 1.05381L5.36305 0.883988L5.58216 1.05381L5.49844 0.779007L5.71763 0.60919H5.44669L5.36305 0.334473L5.27933 0.60919H5.00847ZM6.53367 0.60919L6.75286 0.779007L6.66914 1.05381L6.88826 0.883988L7.10745 1.05381L7.02373 0.779007L7.24284 0.60919H6.97198L6.88826 0.334473L6.80454 0.60919H6.53367ZM8.05896 0.60919L8.27807 0.779007L8.19435 1.05381L8.41354 0.883988L8.63265 1.05381L8.54893 0.779007L8.76812 0.60919H8.49726L8.41354 0.334473L8.32982 0.60919H8.05896ZM1.19522 1.30637L1.41441 1.47618L1.33069 1.7509L1.54988 1.58108L1.76899 1.7509L1.68527 1.47618L1.90446 1.30637H1.63352L1.54988 1.03157L1.46616 1.30637H1.19522ZM2.7205 1.30637L2.93969 1.47618L2.85597 1.7509L3.07509 1.58108L3.29428 1.7509L3.21056 1.47618L3.42967 1.30637H3.15881L3.07509 1.03157L2.99137 1.30637H2.7205ZM4.24579 1.30637L4.46498 1.47618L4.38126 1.7509L4.60037 1.58108L4.81956 1.7509L4.73584 1.47618L4.95495 1.30637H4.68409L4.60037 1.03157L4.51665 1.30637H4.24579ZM5.77107 1.30637L5.99018 1.47618L5.90646 1.7509L6.12565 1.58108L6.34477 1.7509L6.26105 1.47618L6.48024 1.30637H6.20937L6.12565 1.03157L6.04193 1.30637H5.77107ZM7.29628 1.30637L7.51547 1.47618L7.43175 1.7509L7.65086 1.58108L7.87005 1.7509L7.78633 1.47618L8.00544 1.30637H7.73458L7.65086 1.03157L7.56722 1.30637H7.29628ZM0.432617 2.00346L0.651807 2.17328L0.568087 2.44808L0.7872 2.27826L1.00639 2.44808L0.922671 2.17328L1.14178 2.00346H0.87092L0.7872 1.72874L0.70348 2.00346H0.432617ZM1.9579 2.00346L2.17701 2.17328L2.09329 2.44808L2.31248 2.27826L2.53167 2.44808L2.44795 2.17328L2.66707 2.00346H2.3962L2.31248 1.72874L2.22876 2.00346H1.9579ZM3.48318 2.00346L3.7023 2.17328L3.61858 2.44808L3.83777 2.27826L4.05688 2.44808L3.97316 2.17328L4.19235 2.00346H3.92149L3.83777 1.72874L3.75405 2.00346H3.48318ZM5.00847 2.00346L5.22758 2.17328L5.14386 2.44808L5.36305 2.27826L5.58216 2.44808L5.49844 2.17328L5.71763 2.00346H5.44669L5.36305 1.72874L5.27933 2.00346H5.00847ZM6.53367 2.00346L6.75286 2.17328L6.66914 2.44808L6.88826 2.27826L7.10745 2.44808L7.02373 2.17328L7.24284 2.00346H6.97198L6.88826 1.72874L6.80454 2.00346H6.53367ZM8.05896 2.00346L8.27807 2.17328L8.19435 2.44808L8.41354 2.27826L8.63265 2.44808L8.54893 2.17328L8.76812 2.00346H8.49726L8.41354 1.72874L8.32982 2.00346H8.05896ZM1.21408 2.70293L1.43319 2.87274L1.34955 3.14746L1.56866 2.97764L1.78785 3.14746L1.70413 2.87266L1.92325 2.70293H1.65238L1.56866 2.42813L1.48494 2.70293H1.21408ZM2.73936 2.70293L2.95848 2.87274L2.87476 3.14746L3.09395 2.97764L3.31306 3.14746L3.22934 2.87266L3.44853 2.70293H3.17767L3.09395 2.42813L3.01023 2.70293H2.73936ZM4.26465 2.70293L4.48376 2.87274L4.40004 3.14746L4.61923 2.97764L4.83834 3.14746L4.75462 2.87266L4.97381 2.70293H4.70287L4.61923 2.42813L4.53551 2.70293H4.26465ZM5.78985 2.70293L6.00904 2.87274L5.92532 3.14746L6.14444 2.97764L6.36363 3.14746L6.27991 2.87266L6.49902 2.70293H6.22816L6.14444 2.42813L6.06072 2.70293H5.78985ZM7.31514 2.70293L7.53425 2.87274L7.45053 3.14746L7.66972 2.97764L7.88883 3.14746L7.80511 2.87266L8.0243 2.70293H7.75344L7.66972 2.42813L7.586 2.70293H7.31514ZM0.455771 3.39421L0.674961 3.56395L0.591241 3.83875L0.810354 3.66893L1.02954 3.83875L0.945824 3.56395L1.16494 3.39421H0.894074L0.810354 3.11942L0.726634 3.39421H0.455771ZM1.98105 3.39421L2.20017 3.56395L2.11645 3.83875L2.33564 3.66893L2.55475 3.83875L2.47111 3.56395L2.69022 3.39421H2.41936L2.33564 3.11942L2.25192 3.39421H1.98105ZM3.50634 3.39421L3.72545 3.56395L3.64173 3.83875L3.86092 3.66893L4.08003 3.83875L3.99631 3.56395L4.2155 3.39421H3.94464L3.86092 3.11942L3.7772 3.39421H3.50634ZM5.03154 3.39421L5.25073 3.56395L5.16701 3.83875L5.38613 3.66893L5.60532 3.83875L5.5216 3.56395L5.74079 3.39421H5.46985L5.38613 3.11942L5.30248 3.39421H5.03154ZM6.55683 3.39421L6.77594 3.56395L6.6923 3.83875L6.91141 3.66893L7.1306 3.83875L7.04688 3.56395L7.26599 3.39421H6.99513L6.91141 3.11942L6.82769 3.39421H6.55683ZM8.08211 3.39421L8.30122 3.56395L8.2175 3.83875L8.43669 3.66893L8.65581 3.83875L8.57209 3.56395L8.79128 3.39421H8.52041L8.43669 3.11942L8.35297 3.39421H8.08211ZM0.470107 4.76633L0.68922 4.93615L0.605501 5.21094L0.824691 5.04113L1.0438 5.21094L0.960084 4.93615L1.17927 4.76633H0.908411L0.824691 4.49161L0.740971 4.76633H0.470107ZM1.99531 4.76633L2.2145 4.93615L2.13078 5.21094L2.3499 5.04113L2.56909 5.21094L2.48537 4.93615L2.70448 4.76633H2.43362L2.3499 4.49161L2.26618 4.76633H1.99531ZM3.5206 4.76633L3.73971 4.93615L3.65607 5.21094L3.87518 5.04113L4.09437 5.21094L4.01065 4.93615L4.22976 4.76633H3.9589L3.87518 4.49161L3.79146 4.76633H3.5206ZM5.04588 4.76633L5.26499 4.93615L5.18127 5.21094L5.40046 5.04113L5.61958 5.21094L5.53593 4.93615L5.75505 4.76633H5.48418L5.40046 4.49161L5.31674 4.76633H5.04588ZM6.57109 4.76633L6.79028 4.93615L6.70656 5.21094L6.92567 5.04113L7.14486 5.21094L7.06114 4.93615L7.28033 4.76633H7.00939L6.92567 4.49161L6.84203 4.76633H6.57109ZM8.09637 4.76633L8.31548 4.93615L8.23184 5.21094L8.45095 5.04113L8.67014 5.21094L8.58642 4.93615L8.80554 4.76633H8.53467L8.45095 4.49161L8.36723 4.76633H8.09637ZM0.451477 6.15463L0.67059 6.32445L0.586871 6.59925L0.806061 6.42943L1.02517 6.59925L0.941454 6.32445L1.16064 6.15463H0.889704L0.806061 5.87991L0.722341 6.15463H0.451477ZM1.97668 6.15463L2.19587 6.32445L2.11215 6.59925L2.33127 6.42943L2.55046 6.59925L2.46674 6.32445L2.68585 6.15463H2.41499L2.33127 5.87991L2.24755 6.15463H1.97668ZM3.50197 6.15463L3.72108 6.32445L3.63744 6.59925L3.85655 6.42943L4.07574 6.59925L3.99202 6.32445L4.21113 6.15463H3.94027L3.85655 5.87991L3.77283 6.15463H3.50197ZM5.02725 6.15463L5.24636 6.32445L5.16264 6.59925L5.38183 6.42943L5.60095 6.59925L5.5173 6.32445L5.73642 6.15463H5.46555L5.38183 5.87991L5.29811 6.15463H5.02725ZM6.55246 6.15463L6.77165 6.32445L6.68793 6.59925L6.90704 6.42943L7.12623 6.59925L7.04251 6.32445L7.2617 6.15463H6.99076L6.90704 5.87991L6.8234 6.15463H6.55246ZM8.07774 6.15463L8.29685 6.32445L8.21321 6.59925L8.43232 6.42943L8.65151 6.59925L8.56779 6.32445L8.78691 6.15463H8.51604L8.43232 5.87991L8.3486 6.15463H8.07774ZM1.2186 4.0734L1.43772 4.24322L1.35407 4.51794L1.57319 4.34812L1.79238 4.51794L1.70866 4.24322L1.92777 4.0734H1.65691L1.57319 3.79861L1.48947 4.0734H1.2186ZM2.74389 4.0734L2.963 4.24322L2.87928 4.51794L3.09847 4.34812L3.31758 4.51794L3.23394 4.24322L3.45305 4.0734H3.18219L3.09847 3.79861L3.01475 4.0734H2.74389ZM4.26917 4.0734L4.48828 4.24322L4.40456 4.51794L4.62375 4.34812L4.84287 4.51794L4.75915 4.24322L4.97834 4.0734H4.70747L4.62375 3.79861L4.54003 4.0734H4.26917ZM5.79438 4.0734L6.01357 4.24322L5.92985 4.51794L6.14896 4.34812L6.36815 4.51794L6.28443 4.24322L6.50354 4.0734H6.23268L6.14896 3.79861L6.06524 4.0734H5.79438ZM7.31966 4.0734L7.53877 4.24322L7.45505 4.51794L7.67424 4.34812L7.89336 4.51794L7.80971 4.24322L8.02883 4.0734H7.75796L7.67424 3.79861L7.59052 4.0734H7.31966ZM1.21408 5.4595L1.43327 5.62932L1.34955 5.90411L1.56866 5.7343L1.78785 5.90411L1.70413 5.62932L1.92325 5.4595H1.65238L1.56866 5.18478L1.48494 5.4595H1.21408ZM2.73936 5.4595L2.95848 5.62932L2.87476 5.90411L3.09395 5.7343L3.31314 5.90411L3.22942 5.62932L3.44853 5.4595H3.17767L3.09395 5.18478L3.01023 5.4595H2.73936ZM4.26465 5.4595L4.48376 5.62932L4.40004 5.90411L4.61923 5.7343L4.83834 5.90411L4.75462 5.62932L4.97381 5.4595H4.70295L4.61923 5.18478L4.53551 5.4595H4.26465ZM5.78985 5.4595L6.00904 5.62932L5.92532 5.90411L6.14444 5.7343L6.36363 5.90411L6.27991 5.62932L6.49902 5.4595H6.22816L6.14444 5.18478L6.06072 5.4595H5.78985ZM7.31514 5.4595L7.53425 5.62932L7.45053 5.90411L7.66972 5.7343L7.88883 5.90411L7.80519 5.62932L8.0243 5.4595H7.75344L7.66972 5.18478L7.586 5.4595H7.31514Z" fill="white"/>
</g>
<defs>
<clipPath id="clip0_18_34">
<rect width="23" height="13" fill="white"/>
</clipPath>
</defs>
</svg>
